<svg width="18" height="17" viewBox="0 0 18 17" fill="none" xmlns="http://www.w3.org/2000/svg">
<path fill-rule="evenodd" clip-rule="evenodd" d="M10.531 9.23819C9.65245 9.23819 8.94019 8.54127 8.94019 7.68161C8.94019 6.82196 9.65245 6.12485 10.531 6.12485C10.6389 6.12485 10.7441 6.13532 10.8458 6.1553C10.802 6.2548 10.7654 6.35314 10.736 6.45052C10.7063 6.44702 10.6769 6.4447 10.6488 6.44373C10.631 6.5603 10.5925 7.24868 10.5856 7.40386C10.5709 7.73515 10.5479 8.06082 10.5497 8.39851C10.6127 8.39715 10.7424 8.38843 10.7933 8.36864C10.8349 8.21386 10.8776 8.10795 10.9281 8.01717C10.9513 8.05558 10.9759 8.09379 11.0019 8.13181C10.9561 8.20493 10.9242 8.27399 10.9136 8.33625C10.9735 8.31899 11.0366 8.29532 11.1008 8.26681C11.1115 8.28039 11.1222 8.29396 11.1331 8.30735C11.0578 8.33838 10.9806 8.36728 10.8992 8.39948C10.8883 8.70149 11.1668 8.65571 11.3736 8.56939C11.3902 8.58569 11.4071 8.60179 11.4241 8.61789C11.146 8.74105 10.7913 8.81205 10.7907 8.43459C10.7509 8.43381 10.666 8.47067 10.5491 8.46776C10.5552 8.69916 10.5525 8.85511 10.5998 9.06963C10.9579 9.06537 11.2859 8.89836 11.5161 8.70149C11.5456 8.72748 11.576 8.75347 11.6071 8.77927L11.6352 8.80254C11.3488 9.07215 10.9598 9.23819 10.531 9.23819ZM12.0654 8.09418C12.0137 8.27864 11.9282 8.44933 11.816 8.59946C11.798 8.51101 11.7795 8.40433 11.768 8.29241C11.8517 8.19756 11.9064 8.09612 11.9407 7.99506C11.9796 8.03114 12.0216 8.06411 12.0654 8.09418ZM9.0847 7.26556C9.12137 7.20174 9.16677 7.13308 9.20979 7.08265C9.33785 7.35711 9.51944 7.49774 9.68754 7.69345C9.80728 7.83271 10.0844 8.11008 10.1332 8.33819C9.78448 8.25284 9.21732 7.85929 9.05952 7.49851C9.00897 7.38271 9.03058 7.36002 9.0847 7.26556ZM10.3919 6.44664C10.3962 6.60588 10.4155 6.77269 10.4238 6.93388C10.4319 7.09235 10.4432 7.25373 10.4529 7.41258C10.4732 7.74407 10.4799 8.06392 10.4894 8.40045C10.3903 8.39754 10.3431 8.38726 10.2541 8.37291C10.1542 7.91185 9.78646 7.62013 9.52082 7.20155C9.32219 6.88849 9.35767 6.89373 9.52558 6.77192C9.75197 6.60705 10.0705 6.4575 10.3919 6.44664ZM11.7643 7.92892C11.7863 7.91108 11.8079 7.89265 11.8291 7.87403C11.819 7.86084 11.8091 7.84746 11.7996 7.83368L11.7847 7.81196C11.7756 7.84939 11.7688 7.88858 11.7643 7.92892ZM8.97963 7.61276C9.11543 7.92407 9.83146 8.30774 10.1463 8.40142C10.1685 8.77965 9.72025 8.60392 9.54303 8.50577C9.09025 8.25517 9.01155 7.96674 8.97963 7.61276ZM10.4892 8.46776C10.4839 8.69993 10.4851 8.85472 10.4385 9.06944C10.1794 9.06614 9.90858 8.96179 9.73056 8.85452C9.62926 8.79343 9.5456 8.72631 9.46928 8.65532C9.3553 8.54903 9.34261 8.50713 9.26153 8.40996C9.299 8.43129 9.33884 8.46213 9.38007 8.48812C9.62648 8.64388 10.2513 8.93909 10.2563 8.43537C10.3239 8.43924 10.4008 8.46853 10.4892 8.46776Z" fill="#002F52"/>
<path d="M9.46901 4.16306C9.49419 4.3452 9.98225 5.92291 9.90038 4.95017C9.87936 4.70132 9.65932 4.20069 9.47476 4.05948L9.46901 4.16306ZM14.3427 6.57425C14.8068 6.65474 15.0088 7.02696 15.0088 7.02696C14.8553 6.97731 14.5703 6.88343 14.4963 6.94162C14.8232 7.11483 15.1208 7.88604 15.2839 8.20007C14.8193 7.73106 14.4579 7.60246 14.1024 7.7072C14.4305 7.52545 14.7782 7.6781 14.8424 7.63621C14.7184 7.08321 14.2321 6.86539 14.3621 6.85492C14.4801 6.84522 14.7392 6.85065 14.7854 6.88362C14.7189 6.72418 14.5921 6.63593 14.3427 6.57425ZM14.2414 5.15442C14.0102 5.36332 13.7375 5.32356 13.7375 5.32356C13.8257 5.26343 13.9904 5.15229 13.9908 5.09157C13.7684 5.1936 13.2526 5.04871 13.0252 5.01147C13.455 4.9527 13.6689 4.81576 13.7607 4.59134C13.7192 4.83147 13.4988 4.95211 13.494 5.00157C13.8275 5.1517 14.1377 4.98451 14.0899 5.05569C14.0465 5.12048 13.9377 5.25237 13.902 5.26343C14.0108 5.29097 14.1078 5.25955 14.2414 5.15442ZM12.5036 4.64313C12.6283 4.36052 12.8942 4.28836 12.8942 4.28836C12.8385 4.37836 12.734 4.54517 12.7588 4.60104C12.9197 4.41948 13.4514 4.34694 13.6744 4.29069C13.3059 4.51511 13.1675 4.72517 13.1765 4.96685C13.1146 4.73099 13.2661 4.53315 13.25 4.48601C12.8831 4.48136 12.6688 4.75737 12.6828 4.67319C12.6955 4.59677 12.7403 4.43306 12.7683 4.40862C12.6579 4.42666 12.5821 4.49397 12.5036 4.64313ZM13.6387 6.43091C13.7854 6.49763 13.8324 6.65862 13.7363 6.81147C13.6403 6.96431 13.3636 7.02696 13.2573 6.98933C13.1511 6.9517 13.1731 6.94724 13.1451 6.91563C13.1531 6.91931 13.0825 6.89468 13.1697 6.92552C13.2569 6.95636 13.5638 6.88265 13.6487 6.74765C13.7333 6.61265 13.7111 6.51237 13.6387 6.43091ZM11.496 5.09274C11.496 5.09274 10.8055 5.62595 11.427 5.86511C11.7953 5.94599 12.1234 5.91632 12.4573 5.89653C12.4541 5.90584 12.4511 5.91535 12.4485 5.92504C12.3865 6.15683 12.5165 6.41772 12.7393 6.50772C12.9507 6.59306 13.1693 6.49375 13.2443 6.28524C13.1416 6.40007 12.9768 6.44157 12.8167 6.37679C12.6254 6.29959 12.5022 6.09632 12.5108 5.89343C13.0639 5.86298 13.8239 5.72933 14.6295 6.32946C13.4344 4.86076 11.406 5.88082 11.496 5.09274ZM13.1513 7.04849C13.1882 7.22539 13.9218 7.21336 13.9242 6.51257C14.1215 6.84619 14.0899 7.45407 13.7751 7.86295C13.7561 7.71011 13.6534 7.61798 13.5539 7.56716C13.5539 7.56716 13.6885 7.74968 13.6421 8.00746C13.59 8.05479 13.5327 8.09726 13.4698 8.13412C13.4968 7.96517 13.5186 7.68935 13.3965 7.59237C13.3965 7.59237 13.4352 7.97138 13.251 8.23013C13.1907 8.24875 13.1271 8.26291 13.0595 8.27164C13.3529 7.55397 13.1513 7.04849 13.1513 7.04849ZM14.5964 6.16246C14.5964 6.16246 12.8289 4.24724 11.9149 5.1486C11.9335 5.43645 13.1771 4.6569 14.5964 6.16246ZM11.0854 6.00767C11.0854 6.00767 13.1283 6.15567 12.6872 8.14634C12.6872 8.14634 12.1809 8.14226 11.9103 7.74987C12.0106 7.75996 12.5141 7.76869 12.3224 7.34293C12.3224 7.34293 11.3467 7.07332 11.6861 8.66073C10.8067 7.93065 10.5052 7.06925 11.0854 6.00767ZM11.1312 6.11144C10.7023 6.72108 10.9185 7.83017 11.3424 8.12035C10.9128 7.84394 10.8737 6.64155 11.2914 6.45787C11.8274 6.41461 12.31 6.62933 12.5831 6.95772C12.3232 6.46369 11.5477 6.16963 11.1312 6.11144ZM12.9915 5.97935C12.9996 5.98944 13.007 5.99992 13.0135 6.01058C13.0387 6.05093 13.0526 6.09244 13.0541 6.1291C13.0557 6.16711 13.0444 6.20028 13.0197 6.22239C13.0165 6.2253 13.0129 6.22802 13.0091 6.23054C12.9741 6.25401 12.9251 6.25498 12.8741 6.23752C12.8244 6.22045 12.7724 6.18573 12.7302 6.13744C12.7185 6.12405 12.708 6.11028 12.6991 6.09651C12.6898 6.08216 12.6819 6.06761 12.6755 6.05326L12.6392 5.97198L12.6947 6.04065L12.7005 6.04782L12.7064 6.05481C12.7455 6.09942 12.7933 6.13142 12.8391 6.14694C12.8837 6.16226 12.9257 6.16188 12.955 6.14209C12.975 6.12871 12.9863 6.10776 12.9895 6.08293C12.9929 6.05616 12.9871 6.02455 12.9725 5.99177L12.9344 5.90642L12.9915 5.97935ZM13.6013 11.2145C13.539 12.7069 13.2219 12.3098 13.4451 10.8894C13.5484 10.232 13.5949 11.0539 13.6013 11.2145ZM13.9371 10.4634C14.3758 10.7641 14.3445 11.238 14.333 11.2444C14.201 10.9841 14.0689 10.7238 13.9371 10.4634ZM15.2893 10.2439C14.9178 9.713 14.0981 9.47267 14.0981 9.47267C15.2657 9.54522 15.5184 9.99774 15.2893 10.2439ZM13.975 10.0119C14.1201 10.1013 14.3102 10.3471 14.3019 10.3525C14.2031 10.2763 14.109 10.1907 14.0049 10.1258C13.7555 9.97019 13.5325 10.0315 13.4034 10.3009C12.6263 12.4039 13.2665 14.9204 13.7151 12.1071C13.7894 11.6408 13.8019 11.2058 13.8063 10.7385C13.8524 10.8285 13.8838 10.895 13.9197 10.9584C14.0521 11.1918 14.1803 11.4282 14.3217 11.6554C14.3968 11.776 14.556 11.8887 14.6698 11.7661C14.7396 11.6911 14.7176 11.5852 14.6954 11.4897C14.6341 11.2253 14.5568 10.9647 14.4864 10.7024C14.4717 10.6481 14.4583 10.5934 14.4353 10.5034C14.5322 10.5529 14.595 10.5833 14.6567 10.6169C14.7689 10.678 14.8767 10.7525 14.9933 10.7984C15.071 10.8291 15.1842 10.8145 15.203 10.7121C15.2169 10.6365 15.1654 10.5529 15.1202 10.4988C15.0167 10.3746 14.9102 10.2493 14.7873 10.1475C14.4456 9.86371 14.0725 9.63929 13.6659 9.4816C13.7805 9.48625 13.8941 9.49789 14.0015 9.53435C14.3851 9.6645 14.7348 9.87729 15.0671 10.1256C15.4332 10.3992 15.613 10.8089 15.6433 11.2905C15.662 11.5877 15.5212 11.6707 15.2798 11.532C15.1759 11.4723 15.0785 11.3982 14.9669 11.3229C14.9989 11.4785 15.0437 11.6152 15.0512 11.7529C15.0605 11.923 15.0708 12.0961 15.0546 12.2648C15.0411 12.4043 14.9685 12.5536 14.8294 12.5596C14.7332 12.5637 14.6424 12.5061 14.5681 12.4417C14.5144 12.3934 14.2533 12.104 14.2313 12.0379C14.0251 12.9115 13.5805 14.1796 12.5706 14.6137C12.5082 14.3554 12.5873 13.7403 12.618 13.2187C12.6571 12.5525 12.6432 9.61504 13.6604 9.87147C13.7819 9.90192 13.8657 9.95138 13.975 10.0119ZM14.1106 8.93694C13.9734 8.67935 13.7369 8.57112 13.3243 8.47724C13.3313 8.43825 13.6947 8.48054 13.7295 8.48713C14.0124 8.15604 14.1456 8.12772 14.1456 8.12772C14.0683 8.01463 13.8439 8.02705 13.7821 8.02879L13.7817 8.02608C14.5427 7.68858 14.8062 8.19463 14.8062 8.19463C14.4993 8.13334 14.1617 8.44504 14.0453 8.56472C15.2595 8.94392 15.384 10.0005 15.384 10.0005C14.8234 9.09289 13.4393 9.05817 12.9515 9.78748C12.415 10.7996 12.22 13.1865 12.0889 14.3724C12.0297 14.9101 12.0941 14.7875 11.3164 14.9278C9.75428 15.2092 10.7776 15.1388 11.2684 13.6437C11.6738 12.4091 11.2528 13.1324 10.8244 13.6478C10.5637 13.9614 9.75666 15.1142 9.45256 15.1572C9.07472 15.2106 7.88569 15.1186 7.45452 15.0781C8.82018 14.1459 10.6963 13.3663 11.5374 11.9384C9.40458 13.3045 7.65414 13.4077 5.23465 13.7576C4.18796 13.9091 4.33683 14.1783 3.61029 13.5205C3.33276 13.2694 3.15811 13.0612 2.9456 12.7586C5.13038 13.2985 7.99848 12.9404 10.1478 12.077C7.86646 12.7134 5.05128 12.8938 2.77531 12.3957C2.33879 11.9605 2.41789 11.6662 2.41789 11.6662C2.7989 11.9279 6.50932 12.9431 9.72791 11.7361C9.76934 11.4911 9.81177 11.2461 9.85399 11.0029C10.2717 10.9433 10.6892 10.8778 11.1078 10.8064C10.7365 11.1204 10.3478 11.4017 9.94974 11.6488C10.9251 11.2484 11.8465 10.6349 12.6049 9.7225C13.1366 9.083 13.2778 9.0314 14.1106 8.93694ZM13.9876 8.8644C13.1168 8.73754 12.7045 9.26261 12.2334 9.88272C12.2174 9.48664 12.4303 8.93461 12.4277 8.93733C12.7481 8.62892 13.7591 8.47433 13.9876 8.8644ZM5.25983 14.2384C7.16152 13.6866 8.46969 13.7523 10.462 12.7994C10.867 12.6056 11.3749 12.2569 10.6019 12.8774C9.59866 13.6829 8.15251 14.1899 6.99163 14.8215C6.57177 15.05 5.76355 14.6013 5.37084 14.4442L5.19064 14.372L5.12879 14.3024L5.25983 14.2384ZM3.77205 9.09677C3.80734 8.88845 3.71674 8.79845 3.5411 8.7967C3.35635 8.79496 3.17159 8.79302 2.98703 8.79127C2.91071 9.23507 2.83478 9.6744 2.75807 10.1083C2.68214 10.5372 2.60582 10.9617 2.5291 11.3809C2.50947 11.4882 2.52712 11.5755 2.59234 11.636C2.59234 11.636 2.59234 11.6356 2.59234 11.6352C2.59729 11.6402 2.60443 11.6459 2.61038 11.6509C2.64547 11.6777 2.69047 11.6986 2.74796 11.7105C3.09923 11.7828 3.4517 11.8476 3.80417 11.904C3.81824 11.8222 3.8343 11.7407 3.84837 11.6589C3.85333 11.6298 3.86443 11.6057 3.89655 11.6102C3.93163 11.6152 3.93262 11.641 3.92767 11.6701C3.91359 11.7525 3.89853 11.8344 3.88445 11.9166C4.2278 11.9609 4.57194 12.0024 4.91648 12.0322C5.10699 12.0487 5.21146 11.9323 5.24278 11.7333C5.3189 11.249 5.3976 10.7631 5.47373 10.2767C5.55005 9.78864 5.62835 9.29888 5.70566 8.80834C5.51892 8.80795 5.33318 8.80737 5.14743 8.80679C4.95256 8.80621 4.84829 8.92492 4.81716 9.11927C4.76304 9.45619 4.70773 9.79272 4.65461 10.1275C4.60148 10.4611 4.54696 10.7944 4.49403 11.1258C4.48987 11.1518 4.46985 11.186 4.43377 11.1825C4.39848 11.1792 4.38639 11.1429 4.39055 11.1169C4.45062 10.742 4.51307 10.3645 4.57333 9.98513C4.63359 9.60476 4.69584 9.22304 4.7571 8.84015C4.47798 8.83879 4.19886 8.83608 3.91974 8.83394C3.85848 9.20558 3.79644 9.5747 3.73597 9.94168C3.67591 10.3067 3.61326 10.6692 3.5532 11.0296C3.54903 11.0545 3.52921 11.0855 3.49392 11.0812C3.45784 11.0768 3.44555 11.042 3.44972 11.0176C3.50285 10.7018 3.55736 10.3837 3.61029 10.0647C3.66381 9.74442 3.71714 9.42088 3.77205 9.09677ZM5.19976 11.2366C5.15555 11.5066 5.11135 11.7758 5.06833 12.0447C5.4317 12.0654 5.79527 12.0786 6.15963 12.0867C6.20284 11.8127 6.24705 11.5376 6.29106 11.2626C5.9265 11.2593 5.56313 11.2523 5.19976 11.2366ZM5.70566 9.62978C5.66661 9.8833 5.62736 10.1368 5.5891 10.3895C5.55104 10.6417 5.51278 10.8937 5.47472 11.1452C5.75185 11.1526 6.02899 11.1569 6.30692 11.1584C6.34617 10.9038 6.38522 10.6493 6.42428 10.395C6.46353 10.1407 6.50258 9.88601 6.54183 9.63153C6.26291 9.63269 5.98379 9.63172 5.70566 9.62978ZM5.8371 8.80854C5.79804 9.05138 5.75978 9.29403 5.72172 9.53591C5.99985 9.53726 6.27897 9.53843 6.55809 9.53726C6.59635 9.29461 6.63441 9.05177 6.67346 8.80892C6.39434 8.80892 6.11522 8.80892 5.8371 8.80854ZM7.23963 11.7413C7.20851 11.9397 7.27194 12.0592 7.46344 12.046C7.65038 12.0332 7.83692 12.0159 8.02465 12.001C8.10097 11.5138 8.17908 11.0275 8.2556 10.5443C8.33172 10.0637 8.41003 9.58479 8.48754 9.10841C8.51846 8.91774 8.45542 8.80175 8.26373 8.80291C7.76278 8.80582 7.26183 8.80737 6.76188 8.80834C6.67663 9.35416 6.5902 9.90037 6.50595 10.4462C6.4215 10.9924 6.33626 11.5396 6.25201 12.0866C6.52914 12.0829 6.80608 12.0788 7.08421 12.0658C7.14745 11.6575 7.21168 11.2496 7.27492 10.8428C7.33815 10.4365 7.40238 10.0311 7.46661 9.62532C7.48663 9.62494 7.50685 9.62435 7.52688 9.62397C7.55503 9.62338 7.56791 9.63657 7.56296 9.66741C7.50963 10.0121 7.45353 10.3577 7.4004 10.7034C7.34727 11.0484 7.29395 11.3955 7.23963 11.7413ZM8.57496 9.10705C8.52996 9.38209 8.48555 9.6583 8.44234 9.93489C8.39912 10.2117 8.3561 10.4904 8.3119 10.7689C8.28097 10.9631 8.34005 11.0756 8.53075 11.0597C8.65921 11.049 8.78767 11.0366 8.91732 11.0227C8.91335 11.0549 8.90919 11.0859 8.90621 11.1177C8.68637 11.1412 8.46751 11.1602 8.24866 11.1788C8.20445 11.4488 8.16025 11.72 8.11723 11.9913C8.52282 11.9455 8.92981 11.8953 9.33599 11.8336C9.52809 11.8045 9.63177 11.673 9.66329 11.4868C9.695 11.2996 9.72652 11.1119 9.75864 10.9253C9.95033 10.9005 10.0546 10.7786 10.0859 10.5986C10.1309 10.3397 10.1741 10.0817 10.2184 9.8253C10.2624 9.57063 10.3078 9.31653 10.3528 9.06457C10.1208 9.04285 9.88888 8.94974 9.73029 8.85412C9.69699 8.83414 9.66566 8.81338 9.63593 8.79205C9.3911 8.79438 9.14648 8.79632 8.90205 8.79826C8.71055 8.80019 8.60608 8.91677 8.57496 9.10705ZM9.31994 10.2448C9.3132 10.2866 9.29674 10.3056 9.26066 10.3081C9.22459 10.3106 9.20992 10.2943 9.21646 10.2524C9.25492 10.0102 9.29912 9.76983 9.33996 9.5295C9.34432 9.50429 9.36414 9.47035 9.40022 9.46879C9.4363 9.46744 9.4476 9.50002 9.44344 9.52485C9.4024 9.76459 9.3584 10.0041 9.31994 10.2448ZM12.0205 9.96825C12.0356 9.89144 12.0509 9.81425 12.0667 9.73744C12.098 9.5842 12.0346 9.4977 11.8429 9.51438C11.6211 9.53358 11.3991 9.55103 11.1772 9.5681C11.1893 9.5008 11.1996 9.43272 11.2133 9.3658C11.2197 9.33535 11.2415 9.31265 11.2775 9.31052C11.3126 9.30858 11.3233 9.32914 11.3168 9.35959C11.3093 9.39373 11.3057 9.42845 11.3007 9.46317C11.5798 9.44338 11.859 9.42224 12.1381 9.40032C12.1643 9.26649 12.1896 9.13304 12.2174 9.00056C12.2487 8.8516 12.1863 8.76179 11.9946 8.7647L11.8516 8.76683L11.9077 9.02927L11.607 8.77944L11.5961 8.77032L11.4272 8.77246C11.2052 8.93713 10.9142 9.06612 10.6 9.06981C10.5817 8.98737 10.5708 8.91366 10.5641 8.84112C10.502 8.8869 10.4626 8.95711 10.4437 9.04653L10.4432 9.05002C10.4424 9.0541 10.4416 9.05836 10.4408 9.06263C10.3985 9.29772 10.3593 9.53474 10.3173 9.77235C10.286 9.94925 10.3494 10.0493 10.5401 10.0311C10.7619 10.0096 10.9839 9.9861 11.2058 9.96185C11.1947 10.0212 11.1856 10.0808 11.1737 10.1397C11.1675 10.1706 11.1425 10.1956 11.1104 10.1997C11.0743 10.2043 11.0638 10.1836 11.0702 10.1525C11.0767 10.1213 11.0803 10.0889 11.0862 10.0571C10.8071 10.0893 10.528 10.1178 10.2489 10.1463C10.2247 10.2937 10.2027 10.4411 10.1775 10.5882C10.1434 10.7885 10.2338 10.8582 10.4085 10.8318C10.6836 10.7905 10.9596 10.7466 11.2357 10.6993C11.5085 10.4702 11.7715 10.2262 12.0205 9.96825ZM4.08527 7.33207C4.0811 7.36989 4.06207 7.38095 4.02659 7.38444C4.00954 7.38619 3.99249 7.38774 3.97604 7.38968C4.01093 7.17379 4.04582 6.95655 4.0813 6.73854C4.09835 6.73621 4.1156 6.73369 4.13265 6.73136C4.16754 6.72651 4.17983 6.74979 4.17566 6.78451C4.14553 6.9678 4.1154 7.15052 4.08527 7.33207ZM3.97188 7.74153C4.00677 7.73862 4.01906 7.75007 4.01073 7.79681C3.98813 7.93394 3.96633 8.0705 3.94452 8.20647C3.94036 8.24002 3.92053 8.2666 3.88564 8.26815C3.86859 8.26892 3.85155 8.26989 3.8345 8.27048C3.86324 8.09649 3.89179 7.92134 3.92053 7.7456C3.93778 7.74425 3.95483 7.74289 3.97188 7.74153ZM4.82588 7.80845C4.85324 7.61468 4.7904 7.50024 4.60247 7.51304C4.60584 7.49229 4.61 7.47192 4.61417 7.45097C4.8021 7.43778 4.90042 7.31345 4.93194 7.11793C4.95712 6.95345 4.98249 6.78858 5.00767 6.62313L5.04751 6.36263L5.04811 6.35914V6.35895L5.0487 6.35526L5.0493 6.35157V6.35138L5.04989 6.34789L5.05049 6.3442L5.05069 6.34362L5.05108 6.34052L5.05168 6.33683L5.05188 6.33586L5.05227 6.33315L5.05287 6.32946L5.05307 6.3281L5.05346 6.32578L5.05406 6.32209L5.05425 6.32035L5.05465 6.31821L5.05525 6.31453L5.05564 6.31259L5.05584 6.31084L5.05644 6.30716L5.05683 6.30464L5.05703 6.30328L5.05762 6.29959L5.05802 6.29688L5.05822 6.29591L5.05881 6.29222L5.05941 6.28912V6.28854L5.06 6.28485L5.0606 6.28136V6.28116L5.06119 6.27748L5.06179 6.27379V6.2736L5.06238 6.27011L5.06298 6.26642V6.26584L5.06337 6.26274L5.06397 6.25905L5.06417 6.25808L5.06456 6.25537L5.06516 6.25168L5.06536 6.25032L5.06575 6.248L5.06635 6.24431L5.06655 6.24257L5.06694 6.24063L5.06754 6.23694L5.06793 6.23481L5.06813 6.23326L5.06873 6.22957L5.06912 6.22705L5.06932 6.22589L5.06992 6.2222L5.07031 6.21929L5.07051 6.21851L5.0711 6.21483L5.0717 6.21153V6.21114L5.07229 6.20746L5.07289 6.20377L5.07348 6.20009L5.07408 6.1964V6.19601L5.07467 6.19272L5.07527 6.18903L5.07547 6.18845L5.07586 6.18535L5.07646 6.18166L5.07666 6.18069L5.07705 6.17798L5.07765 6.17429L5.07784 6.17293L5.07824 6.1706L5.07884 6.16692L5.07903 6.16517L5.07943 6.16323L5.08003 6.15955L5.08042 6.15742L5.08062 6.15586L5.08122 6.15218L5.08161 6.14966L5.08181 6.14849L5.0824 6.14481L5.0828 6.1419L5.083 6.14112L5.08359 6.13744L5.08419 6.13414V6.13375L5.08478 6.13007L5.08538 6.12638L5.08577 6.12347L5.08617 6.12056L5.08657 6.11765V6.11707L5.08696 6.11474L5.08736 6.11183L5.08776 6.10892L5.08796 6.10795L5.08815 6.10621L5.08855 6.10349L5.08914 6.09903L5.08934 6.09787L5.08994 6.09224L5.09014 6.0903V6.08953L5.09033 6.08681L5.09053 6.0841L5.09073 6.08157V6.08138L5.09093 6.07867L5.09132 6.07323V6.07304L5.09192 6.06528V6.06451V6.06257L5.09212 6.05985L5.09232 6.05733V6.05617V6.05481V6.05229V6.04976V6.04802V6.04724V6.04472V6.0422V6.04007V6.03968V6.03716V6.03463V6.03367V6.03037V6.02979V6.02726V6.02474V6.0228V6.02222L5.09212 6.01989V6.01757V6.0166V6.01524L5.09192 6.01291L5.09172 6.01058V6.00923V6.00826L5.09152 6.00593L5.09132 6.0036L5.09113 6.00185V6.00127L5.09093 5.99895L5.09073 5.99662L5.09053 5.99429L5.09033 5.99196L5.08994 5.98983L5.08974 5.9877V5.98731L5.08954 5.98537L5.08914 5.98323L5.08875 5.9811L5.08855 5.98032L5.08835 5.97897L5.08796 5.97683L5.08756 5.9747V5.97451L5.08716 5.97257L5.08677 5.97043L5.08637 5.9683L5.08597 5.96694L5.08577 5.96636C5.06456 5.87015 4.99439 5.82205 4.86573 5.84028C4.58899 5.87946 4.31245 5.9264 4.0361 5.97897L4.03432 5.97935L4.02599 5.98091L4.01588 5.98285L4.01133 5.98382L4.00577 5.98479L3.99566 5.98673L3.98833 5.98808L3.98555 5.98867L3.97544 5.9906L3.96533 5.99254L3.95522 5.99448L3.94511 5.99642L3.94214 5.99701L3.92489 6.0003L3.91914 6.00147L3.91478 6.00244L3.90467 6.00438L3.89615 6.00612L3.89456 6.00651L3.88445 6.00845L3.87434 6.01039L3.87315 6.01058L3.86443 6.01233L3.85432 6.01427L3.85016 6.01504L3.84421 6.01621L3.8341 6.01834L3.82716 6.0197L3.82399 6.02028L3.81388 6.02222L3.80417 6.02416H3.80377L3.79366 6.02629L3.78355 6.02843L3.78117 6.02901L3.77344 6.03056L3.76333 6.0327L3.75798 6.03386L3.75322 6.03483L3.74311 6.03696L3.73498 6.03871L3.733 6.0391L3.72289 6.04123L3.71278 6.04336L3.71199 6.04356L3.70267 6.0455L3.69256 6.04763L3.68879 6.04841L3.68225 6.04976L3.67214 6.0519L3.6656 6.05326L3.66203 6.05403L3.65192 6.05617L3.6426 6.0581L3.64181 6.0583L3.6317 6.06043L3.62159 6.06257L3.61961 6.06295L3.61148 6.0647L3.60137 6.06683L3.59641 6.0678L3.59126 6.06897L3.58115 6.0711L3.57342 6.07265L3.57104 6.07323L3.56093 6.07537L3.55082 6.0775L3.55042 6.0777L3.54071 6.07983L3.5306 6.08196L3.52743 6.08274L3.52049 6.08429L3.51038 6.08642L3.50423 6.08778L3.50027 6.08875L3.49016 6.09088L3.48124 6.09282L3.48005 6.09302L3.46994 6.09515L3.45983 6.09729L3.45824 6.09767L3.44972 6.09942L3.43961 6.10155L3.43525 6.10252L3.4295 6.10369L3.41939 6.10582L3.41205 6.10737L3.40928 6.10795L3.39917 6.11009L3.38906 6.11222L3.38509 6.13588L3.38113 6.15955L3.37716 6.18321L3.3732 6.20668L3.36963 6.22821L3.31472 6.55698L3.31432 6.55912L3.31036 6.58259L3.30639 6.60606L3.30243 6.62953L3.29846 6.653L3.2945 6.67647L3.29053 6.69974L3.27884 6.76976L3.27487 6.79304L3.27447 6.79556C3.22908 7.06692 3.18368 7.33614 3.13789 7.60323C3.07921 7.94597 3.01994 8.28483 2.96047 8.6202H3.57203C3.66342 8.6202 3.74073 8.64076 3.80397 8.67838C3.80496 8.67063 3.80595 8.66267 3.80694 8.65472C4.10192 8.6553 4.3969 8.65569 4.69227 8.65588C4.71269 8.52651 4.73311 8.39713 4.75353 8.26757C4.77672 8.11394 4.8013 7.96129 4.82588 7.80845ZM6.14179 5.73826L6.14 5.74989L6.13941 5.75416L6.13703 5.77007L6.13465 5.78597L6.13227 5.80188L6.12989 5.81778L6.12751 5.83369L6.12514 5.84959L6.07895 6.15315L6.07657 6.16905L6.07419 6.18496L6.0724 6.19718C6.04386 6.38494 6.01551 6.5725 5.98736 6.76007C5.93621 7.10048 5.88428 7.44147 5.83293 7.78091C5.80221 7.97972 5.86425 8.0992 6.05298 8.09765C6.45461 8.09455 6.85723 8.0961 7.25945 8.10366C7.44738 8.10716 7.54511 7.99097 7.57644 7.79604C7.62699 7.46416 7.67813 7.13287 7.72868 6.8039C7.75941 6.60392 7.79053 6.40453 7.82185 6.20552L7.82284 6.19951L7.82384 6.19349L7.82423 6.19097L7.82483 6.18748L7.82582 6.18147L7.82661 6.17565V6.17545L7.8276 6.16944L7.82859 6.16343L7.82919 6.16013L7.82958 6.15742L7.83058 6.1514L7.83157 6.14539V6.14481L7.83236 6.13957L7.83335 6.13356L7.83395 6.12948L7.83434 6.12754L7.83533 6.12153L7.83632 6.11552L7.83652 6.11397L7.83732 6.10951L7.83831 6.10349L7.8391 6.09864L7.8393 6.09748L7.84029 6.09147L7.84128 6.08545L7.84168 6.08313L7.84227 6.07944L7.84326 6.07343L7.84406 6.0678V6.06741L7.84505 6.0614L7.84604 6.05539L7.84644 6.05229L7.84683 6.04938L7.84782 6.04336L7.84881 6.03735V6.03696L7.84961 6.03153L7.8506 6.02552L7.85119 6.02164L7.85159 6.01951L7.85258 6.01349L7.85357 6.00748L7.85377 6.00632L7.85456 6.00166L7.85555 5.99565L7.85635 5.99099L7.85655 5.98963L7.85754 5.98362L7.85853 5.97761L7.85892 5.97567L7.85952 5.97179L7.86051 5.96578L7.8613 5.96035V5.95976L7.86229 5.95375L7.86329 5.94774L7.86368 5.94502L7.86428 5.94192L7.86527 5.93591L7.86626 5.92989V5.9297L7.86725 5.92407L7.86824 5.91806L7.86884 5.91438L7.86923 5.91205L7.87022 5.90604L7.87121 5.90002L7.87141 5.89905L7.87221 5.89401L7.8732 5.888L7.87399 5.88373L7.87419 5.88218L7.87518 5.87636L7.87617 5.87035L7.87637 5.8686L7.87696 5.86453L7.87795 5.85851L7.87875 5.85328L7.87895 5.8525L7.87994 5.84649L7.88093 5.84048L7.88133 5.83795L7.88192 5.83466L7.88291 5.82864L7.8839 5.82263C7.70212 5.79819 7.52073 5.77879 7.33934 5.76464C7.13595 5.74873 7.03802 5.90371 7.0067 6.08701L7.00531 6.09651L7.00392 6.10601L7.00254 6.11552L7.00115 6.12502L6.99976 6.13453L6.99897 6.14035L6.9167 6.69431C6.88657 6.89701 6.85663 7.10048 6.8265 7.30414C6.82234 7.34933 6.79914 7.36698 6.76782 7.36679C6.73234 7.3664 6.72064 7.34836 6.72481 7.30317C6.75553 7.09873 6.78626 6.8941 6.81699 6.68966C6.84454 6.50655 6.8721 6.32326 6.89965 6.14054L6.90044 6.13511L6.90183 6.1256L6.90322 6.1161L6.90461 6.1066L6.90599 6.09709L6.90738 6.08759L6.90877 6.07808C6.9395 5.89905 6.88478 5.73748 6.72025 5.73418L6.71232 5.73399H6.71113L6.70439 5.73379H6.70201L6.69646 5.7336H6.69309H6.68873H6.68417H6.68099H6.67525H6.67307L6.66613 5.73341H6.66514L6.65721 5.73321H6.65701L6.64928 5.73302H6.64789H6.64135H6.63877H6.63342H6.62965H6.62549H6.62073H6.61776H6.61181H6.61003H6.60289H6.6021H6.59417H6.59377H6.58624H6.58465H6.57831H6.57553H6.57038H6.56641H6.56245H6.55749H6.55472H6.54857H6.54699H6.53965H6.53906H6.53133H6.53073H6.52359H6.52181H6.51566H6.51269H6.50773H6.50357H6.49981H6.49465H6.49207H6.48573H6.48236H6.47483H6.47443H6.4665H6.46571H6.45877H6.45679H6.45084H6.44767H6.44291H6.43855H6.43498H6.42943H6.42705H6.42051H6.41932H6.41159H6.41139H6.40346H6.40247H6.39573H6.39355H6.388H6.38463H6.38007H6.37551H6.37214H6.36639H6.36421H6.35747H6.35648H6.34855H6.34835H6.34062H6.33943H6.33289H6.33051H6.32516H6.32159H6.31723H6.31247H6.3093H6.30335H6.30137H6.29443H6.29364L6.28571 5.73321H6.28531H6.27778H6.27639H6.27005H6.26747H6.26232H6.25855H6.25459H6.24963H6.24666H6.24051H6.23873L6.23159 5.73341H6.23099L6.22307 5.7336H6.22247L6.21514 5.73379C6.19095 5.73729 6.16637 5.73787 6.14179 5.73826ZM7.90848 6.22045C7.86903 6.46834 7.82978 6.71739 7.79093 6.96683C7.74771 7.24343 7.70489 7.52099 7.66188 7.79972C7.63036 7.99388 7.6934 8.11491 7.88113 8.12287C8.30892 8.14091 8.73712 8.16515 9.16531 8.19483C9.03606 8.02104 8.99899 7.82901 8.97936 7.61254C9.03705 7.74463 9.19921 7.88991 9.39091 8.02045L9.40736 7.92716C9.26403 7.8036 9.14232 7.66569 9.07472 7.53088C8.91077 7.50994 8.74683 7.49035 8.58289 7.4725C8.5589 7.46998 8.5474 7.45601 8.55157 7.42673C8.55355 7.40985 8.55633 7.39336 8.5591 7.37668C8.71829 7.39511 8.87767 7.41489 9.03685 7.43642C9.01941 7.37009 9.04201 7.34041 9.08483 7.26573C9.1215 7.20192 9.1669 7.13326 9.20992 7.08282C9.28782 7.24963 9.38536 7.36698 9.48765 7.47735C9.50291 7.39181 9.51817 7.30647 9.53364 7.22132L9.52095 7.20134C9.39348 7.00039 9.36236 6.93056 9.40082 6.87412C9.1556 6.82252 8.91038 6.77617 8.66516 6.73563C8.66793 6.71914 8.67051 6.70226 8.67329 6.68616C8.68082 6.65785 8.69648 6.64776 8.71967 6.65183C8.97302 6.69703 9.22657 6.74726 9.47992 6.80429L9.49914 6.79052L9.49954 6.79032L9.49994 6.79013L9.50014 6.78994L9.50053 6.78974L9.50073 6.78955L9.50093 6.78935L9.50132 6.78916L9.50152 6.78897L9.50172 6.78877L9.50212 6.78839L9.50251 6.78819L9.50291 6.788L9.50331 6.7878L9.5037 6.78761V6.78741L9.5041 6.78722L9.5043 6.78703L9.5045 6.78683L9.50489 6.78664L9.50509 6.78645L9.50529 6.78625L9.50569 6.78606L9.50608 6.78586L9.50648 6.78567L9.50688 6.78548L9.50727 6.78528H9.50747L9.50787 6.78509L9.50807 6.78489L9.50826 6.7847L9.50866 6.78451L9.50886 6.78431L9.50906 6.78412L9.50945 6.78373L9.50985 6.78354L9.51025 6.78334L9.51064 6.78295L9.51104 6.78276L9.51143 6.78237L9.51163 6.78218L9.51183 6.78198L9.51223 6.78179L9.51243 6.7816L9.51262 6.7814L9.51302 6.78101L9.51342 6.78082L9.51381 6.78063L9.51421 6.78024L9.51461 6.78004L9.515 6.77966L9.5152 6.77946L9.5154 6.77927L9.5158 6.77888L9.516 6.77869L9.51619 6.77849L9.51699 6.77791L9.51738 6.77752L9.51778 6.77713L9.51818 6.77694L9.51857 6.77655L9.51877 6.77636L9.51897 6.77617L9.51936 6.77578L9.51956 6.77558L9.51976 6.77539L9.52016 6.775L9.52055 6.77481L9.52095 6.77442L9.52135 6.77403L9.52174 6.77384L9.52214 6.77345L9.52234 6.77326L9.52254 6.77306L9.52293 6.77267L9.52313 6.77248L9.52333 6.77229L9.52373 6.7719L9.52412 6.7717L9.52452 6.77132L9.5261 6.77015L9.52769 6.76899L9.52928 6.76782L9.53086 6.76666L9.53245 6.7655L9.53403 6.76433L9.53562 6.76317L9.53721 6.76201L9.53879 6.76084L9.54038 6.75968L9.54196 6.75851L9.54355 6.75735L9.54514 6.75619L9.54672 6.75502L9.54831 6.75386L9.54989 6.7527L9.55148 6.75153L9.55307 6.75037L9.55465 6.7492L9.55624 6.74804L9.55782 6.74688L9.55941 6.74571L9.56099 6.74455L9.56258 6.74338L9.56417 6.74222L9.56575 6.74106L9.56734 6.73989L9.56892 6.73873L9.57051 6.73757L9.5721 6.7364L9.57368 6.73524L9.57527 6.73407L9.57685 6.73291L9.57844 6.73175L9.58003 6.73058L9.58161 6.72942L9.5832 6.72826L9.58478 6.72709L9.58637 6.72593L9.58795 6.72476L9.58954 6.7236L9.59113 6.72244L9.59271 6.72127L9.5943 6.7203L9.59588 6.71933L9.59747 6.71836L9.59906 6.71739L9.60064 6.71623L9.60223 6.71507L9.6056 6.71293L9.60718 6.71196L9.60897 6.71099L9.61055 6.71002L9.61214 6.70905L9.61551 6.70692L9.61729 6.70576L9.61888 6.70479L9.62047 6.70382L9.62205 6.70285L9.62384 6.70188L9.62562 6.70091L9.6274 6.69994L9.628 6.69664L9.62859 6.69334L9.62879 6.69276L9.62939 6.69004L9.62998 6.68675L9.63018 6.68558L9.63058 6.68345L9.63256 6.67336L9.63295 6.67104L9.63315 6.67007L9.63375 6.66677L9.63434 6.66386V6.66347L9.63692 6.65009L9.63712 6.64931L9.63751 6.6466L9.63811 6.6433L9.63831 6.64194L9.6387 6.63981L9.64108 6.62739L9.64128 6.62642L9.64386 6.61304V6.61285L9.64643 6.59985L9.64663 6.59849L9.64802 6.59132L9.64822 6.58996L9.64881 6.58666L9.64941 6.58414L9.64961 6.58336L9.6502 6.58007L9.6508 6.57696V6.57677L9.65278 6.56668L9.65337 6.56338L9.65357 6.56241L9.65397 6.56009L9.65496 6.55524L9.65536 6.55349L9.65595 6.5502L9.65635 6.54806L9.65655 6.5469L9.65714 6.5436L9.65773 6.54088L9.65793 6.5403L9.65853 6.53701L9.65912 6.53371L9.65972 6.53041L9.66031 6.52711L9.66051 6.52653L9.6611 6.52362L9.6617 6.52032L9.6619 6.51916L9.66229 6.51683L9.66289 6.51354L9.66329 6.51198L9.66368 6.51024L9.66428 6.50694L9.66467 6.50481L9.66487 6.50364L9.66547 6.50035L9.66606 6.49763L9.66626 6.49705L9.66685 6.49375L9.66745 6.49045L9.66804 6.48716C9.6841 6.40375 9.70016 6.32073 9.71621 6.2383C9.53859 6.18612 9.36117 6.13666 9.18375 6.09069L9.16908 6.08681L9.16254 6.08507C9.13181 6.07711 9.10108 6.06935 9.07016 6.0616L9.0658 6.06043L9.04716 6.05578L9.03646 6.05306L9.00692 6.04569L9.00117 6.04433L8.99225 6.0422L8.97818 6.03871L8.97758 6.03851L8.95518 6.03308L8.94824 6.03134L8.93357 6.02785L8.93218 6.02746L8.88917 6.01718L8.88599 6.0164L8.8745 6.01369L8.863 6.01097L8.85963 6.01019L8.84496 6.0067L8.83981 6.00554L8.81681 6.00011L8.81542 5.99972L8.79381 5.99468L8.78608 5.99293L8.77141 5.98944L8.77082 5.98925L8.75655 5.98595L8.74782 5.98401L8.72701 5.97935L8.72463 5.97877L8.71234 5.97606L8.70163 5.97373L8.69767 5.97276L8.683 5.96946L8.67864 5.96849L8.66813 5.96616L8.65544 5.96345L8.65326 5.96287L8.63245 5.95841L8.62392 5.95647L8.60945 5.95336H8.60906L8.59439 5.95026L8.58626 5.94851L8.57952 5.94716L8.56465 5.94405L8.56306 5.94366L8.54978 5.94095L8.53987 5.93882L8.52025 5.93474L8.51668 5.93397L8.50538 5.93164L8.49368 5.92912L8.49071 5.92854L8.47604 5.92543L8.47069 5.92427L8.46117 5.92233L8.44749 5.91961L8.4463 5.91942L8.43163 5.91651L8.4245 5.91496L8.41696 5.91341L8.40229 5.9105L8.4015 5.9103H8.4011L8.36304 5.90274L8.35809 5.90177L8.35551 5.90119L8.34342 5.89886L8.33232 5.89673L8.32855 5.89595L8.31368 5.89304L8.30912 5.89226L8.29901 5.89032L8.28613 5.888L8.28414 5.88761L8.26293 5.88354L8.25461 5.88198L8.23994 5.87927C8.0528 5.84474 7.94952 5.95375 7.91879 6.14326L7.91681 6.15606L7.91483 6.16886L7.91284 6.18166L7.91086 6.19446L7.90888 6.20726L7.90848 6.22045ZM5.63549 8.61845L6.70954 8.61884H7.2874C7.30862 8.48267 7.33042 8.34632 7.35223 8.21015C7.68428 8.21772 8.01712 8.22761 8.34897 8.24254C8.6491 8.25593 8.94963 8.27397 9.25036 8.29336C9.27573 8.31858 9.30348 8.3436 9.33401 8.36804L9.31954 8.44795C9.29952 8.43418 9.28009 8.42099 9.26106 8.41032C9.28247 8.43593 9.29912 8.45765 9.31399 8.47782C9.30547 8.52496 9.29714 8.5719 9.28881 8.61903H8.88857C8.75397 8.61903 8.64256 8.66325 8.5593 8.74336C8.4921 8.66461 8.38961 8.61903 8.25619 8.61903H7.44778C7.46879 8.48422 7.4906 8.34864 7.5124 8.21384C7.17897 8.20685 6.84553 8.20162 6.51289 8.20123C6.18025 8.20084 6.18223 8.20007 5.78397 8.20588C5.68346 8.20724 5.67117 8.18047 5.67533 8.14459C5.73619 7.74599 5.79844 7.34623 5.8591 6.94608C5.89617 6.70129 5.93384 6.45573 5.9715 6.21037L5.97428 6.19272L5.97725 6.1739L5.98003 6.15509L5.983 6.13627L5.98597 6.11746L5.98895 6.09864L5.99192 6.07983L5.99489 6.06101L5.99787 6.0422L6.00084 6.02339L6.00381 6.00457L6.00679 5.98576L6.00976 5.96694L6.01551 5.92931L6.01848 5.9105L6.02423 5.87287L6.02721 5.85405L6.02998 5.83524L6.03295 5.81642L6.03573 5.79761L6.0387 5.77879L6.04029 5.76851L6.04445 5.74116C5.76989 5.75494 5.49593 5.77317 5.22196 5.79819L5.20036 5.93901L5.19718 5.95957L5.19362 5.98265L5.19005 6.00573L5.15119 6.25925L5.14762 6.28233L5.14406 6.30541L5.14049 6.32849L5.13791 6.34595C5.09053 6.65494 5.04335 6.96315 4.99637 7.27058C4.9254 7.73474 4.85284 8.19619 4.78168 8.65511L4.97318 8.6553C5.03047 8.63183 5.0947 8.61942 5.16487 8.61942L5.63549 8.61845ZM9.6948 5.96209C10.1708 6.12948 10.6049 5.42946 10.7326 5.06132C10.7207 5.05685 9.93923 6.85317 9.11119 4.22513C8.51093 2.32019 9.7741 3.48554 10.1684 5.01496C10.1999 4.87879 10.5236 3.35849 10.8097 3.73866C10.8801 3.83216 10.8295 4.63226 10.8267 4.85358C10.8826 4.78821 11.6689 3.78367 11.5204 4.37099C11.3935 4.87259 10.6997 5.73826 10.3212 6.13763C10.5298 6.00321 10.7621 5.79063 10.9822 5.53866C10.9885 5.36196 11.1235 5.19961 11.2478 5.10903L11.3844 5.00953C11.7737 4.41716 12.0082 3.76466 11.7636 3.39612C11.6011 3.15134 11.2488 3.74041 11.1447 3.88627C11.0896 2.11362 10.2974 3.33987 10.2665 3.73285C10.0855 3.67175 9.67003 2.15882 8.13091 2.53763C7.92454 2.58845 8.1989 2.9952 8.24767 3.13272C8.54661 3.97336 8.96945 5.42364 9.6948 5.96209ZM5.89835 5.58328C6.30058 5.54662 6.69963 5.54856 7.10047 5.59879C7.03723 5.60791 6.9732 5.61742 6.90877 5.62692C6.92185 5.63507 6.93454 5.64438 6.94663 5.65466C6.96963 5.67405 6.98925 5.69578 7.00591 5.71925C7.0176 5.70819 7.03009 5.69791 7.04318 5.68802C7.13238 5.62129 7.23923 5.5955 7.35025 5.60423C7.5354 5.61858 7.72016 5.63856 7.90432 5.66319L8.07362 5.68589L8.06806 5.72138C8.12873 5.70586 8.19732 5.70392 8.27324 5.71789C8.53551 5.76619 8.79619 5.82341 9.05489 5.88742C8.80432 5.45429 8.64811 4.91254 8.53987 4.6441C8.47802 4.49086 7.64721 2.5514 7.57386 2.5452C7.50646 2.53938 6.68298 2.88017 6.5561 2.93681C7.08758 3.24754 7.59765 3.72024 7.73205 4.31998C7.45908 4.09576 6.27897 3.13039 6.05318 3.18606C5.93344 3.21554 5.20075 3.71364 5.05544 3.82013C5.99906 3.92623 7.53262 4.41386 7.96102 5.16004C6.64234 4.8272 5.05346 4.95657 3.56906 5.34877C3.57064 5.34858 3.55201 5.28515 3.31234 5.63856C3.10657 5.94153 2.94659 6.22763 2.79137 6.54418C2.93787 6.45108 3.06355 6.37815 3.18329 6.31627L3.22194 6.08448L3.24018 5.97489L3.35099 5.95065C3.84401 5.84222 4.3406 5.74737 4.84075 5.67638C4.91846 5.66532 4.99696 5.67017 5.06635 5.70024L5.07467 5.64554L5.20591 5.63351C5.43626 5.61257 5.66721 5.59627 5.89835 5.58328ZM3.12837 6.64407C2.9793 6.71817 2.83399 6.7975 2.69344 6.88265C2.53069 6.98138 2.79672 6.92319 3.09487 6.84328L3.12837 6.64407ZM10.4108 6.74552C10.4568 6.72244 10.5068 6.69703 10.5613 6.66948C10.8123 5.69073 10.8717 6.28291 10.1214 6.48638C10.21 6.46388 10.3008 6.44972 10.3918 6.44662C10.3946 6.54438 10.4027 6.64504 10.4108 6.74552ZM10.103 6.49142C10.0826 6.49666 10.0617 6.5017 10.0401 6.50636C9.96877 6.52168 9.90058 6.52634 9.83536 6.52129L9.82088 6.59617C9.91009 6.55388 10.005 6.51761 10.103 6.49142ZM12.4842 4.16617C12.5266 4.22203 12.4043 4.60026 12.4043 4.60026C12.7423 4.03078 12.5948 3.68765 12.5948 3.68765C12.5344 3.92293 12.4031 4.08489 12.2443 4.2552C12.2661 3.80112 12.1736 3.39302 11.8249 3.32474C12.146 3.81509 12.0225 4.36091 11.5354 5.05821C11.6175 5.0652 12.0011 4.41716 12.0737 4.21989C12.2095 4.38826 12.1415 4.88752 12.2114 4.49843C12.2182 4.46099 12.4382 4.26237 12.4842 4.16617ZM6.31029 4.34694C6.04822 4.27808 4.83183 4.08935 4.60901 4.17916C4.51267 4.21815 3.89476 4.88655 3.78989 5.00836C5.18192 4.73662 6.22088 4.63188 7.48425 4.90711C7.19582 4.65147 6.70181 4.47787 6.31029 4.34694ZM10.5347 4.39504C10.5024 4.53703 10.1827 5.67173 10.5143 4.88791C10.6174 4.64448 10.6006 4.12155 10.5347 4.39504Z" fill="#002F52"/>
<path fill-rule="evenodd" clip-rule="evenodd" d="M3.19129 6.26837L2.62354 10.0094C2.34382 9.31169 2.21834 6.58744 3.19129 6.26837Z" fill="#002F52"/>
<path fill-rule="evenodd" clip-rule="evenodd" d="M5.71045 1.89289C5.74474 1.93382 5.78697 1.96136 5.83752 1.97533C5.88827 1.98929 5.94615 1.98192 6.01157 1.95302C6.09146 1.91772 6.14102 1.86554 6.16025 1.79707C6.17948 1.72841 6.16322 1.63821 6.11128 1.52591C6.07263 1.44192 6.02366 1.37617 5.96439 1.32865C5.90551 1.28112 5.82463 1.28015 5.72175 1.32554C5.67853 1.34474 5.64245 1.37151 5.6141 1.40623C5.58556 1.44095 5.57049 1.48634 5.56791 1.54259C5.56553 1.59884 5.58199 1.66498 5.61727 1.7414C5.64542 1.80153 5.67635 1.85216 5.71045 1.89289Z" fill="#002F52"/>
<path fill-rule="evenodd" clip-rule="evenodd" d="M4.93634 2.02264C4.94546 1.98928 4.93436 1.94874 4.90264 1.90103C4.87945 1.86631 4.85249 1.84303 4.82136 1.83139C4.79024 1.81976 4.75654 1.82558 4.72066 1.84846L4.43658 2.02905L4.60112 2.27693L4.87667 2.10198C4.9068 2.08219 4.92683 2.05581 4.93634 2.02264Z" fill="#002F52"/>
<path fill-rule="evenodd" clip-rule="evenodd" d="M3.63543 3.03188C3.67944 3.08212 3.72385 3.12207 3.76825 3.15194C3.81286 3.18181 3.86142 3.19656 3.91396 3.19597C3.96669 3.19559 4.02002 3.17231 4.07453 3.12653C4.14094 3.07067 4.17365 3.00705 4.17226 2.93587C4.17107 2.86488 4.12944 2.78263 4.04737 2.68914C3.98612 2.61931 3.9201 2.56947 3.84973 2.54018C3.77955 2.51069 3.70165 2.53203 3.61601 2.60399C3.57993 2.63425 3.55316 2.66994 3.53592 2.71106C3.51867 2.75218 3.51709 2.7999 3.53076 2.85459C3.54484 2.90929 3.57973 2.96826 3.63543 3.03188Z" fill="#002F52"/>
<path fill-rule="evenodd" clip-rule="evenodd" d="M15.7157 4.38691C15.7486 4.38846 15.7792 4.37954 15.8071 4.36053C15.8325 4.34327 15.8478 4.32019 15.8527 4.29168C15.8579 4.26336 15.8499 4.23426 15.8289 4.20478L15.6351 3.93323L15.4394 4.06706L15.6358 4.34191C15.6561 4.37043 15.6826 4.38556 15.7157 4.38691Z" fill="#002F52"/>
<path fill-rule="evenodd" clip-rule="evenodd" d="M1.31012 6.07538C1.34898 6.11689 1.40825 6.15258 1.48834 6.18245C1.55158 6.20611 1.61006 6.22066 1.66358 6.22628C1.7173 6.23172 1.76726 6.22221 1.81305 6.19719C1.85904 6.17217 1.89492 6.12697 1.9205 6.06122C1.95182 5.98111 1.94964 5.90993 1.91376 5.84805C1.87807 5.78618 1.80155 5.73322 1.6838 5.68919C1.59598 5.65622 1.51371 5.64322 1.43759 5.65021C1.36147 5.657 1.30338 5.71208 1.26294 5.81508C1.24589 5.85853 1.23975 5.90236 1.2447 5.94659C1.24966 5.991 1.27147 6.03368 1.31012 6.07538Z" fill="#002F52"/>
<path fill-rule="evenodd" clip-rule="evenodd" d="M16.3314 5.14664L15.9454 5.18931L16.083 5.44166L16.3314 5.14664Z" fill="#002F52"/>
<path fill-rule="evenodd" clip-rule="evenodd" d="M10.1163 0.963045C10.1398 0.940545 10.1539 0.912614 10.1585 0.879446C10.1626 0.849575 10.1559 0.823002 10.1379 0.79992C10.12 0.777032 10.0929 0.762873 10.0566 0.758024L9.72117 0.71283L9.68866 0.94423L10.0282 0.990006C10.0635 0.994661 10.0929 0.985739 10.1163 0.963045Z" fill="#002F52"/>
<path fill-rule="evenodd" clip-rule="evenodd" d="M11.1172 1.01849L10.8837 1.32224L11.1654 1.3977L11.1172 1.01849Z" fill="#002F52"/>
<path fill-rule="evenodd" clip-rule="evenodd" d="M15.2856 4.58126C15.2974 4.59774 15.3137 4.60977 15.3343 4.61753C15.3551 4.62509 15.3769 4.62761 15.3997 4.6247C15.4225 4.62199 15.4431 4.61423 15.4614 4.60182C15.4941 4.57951 15.509 4.55274 15.5062 4.52132C15.5036 4.49009 15.4951 4.4641 15.48 4.44315L15.2861 4.1716L15.0893 4.30621L15.2856 4.58126Z" fill="#002F52"/>
<path fill-rule="evenodd" clip-rule="evenodd" d="M10.0303 1.39344C10.0501 1.38355 10.0668 1.36977 10.0802 1.35135C10.0937 1.33311 10.1018 1.31314 10.105 1.29161C10.1104 1.25301 10.1007 1.22411 10.0751 1.20471C10.0499 1.18531 10.0245 1.17387 9.99856 1.17038L9.66314 1.12518L9.63043 1.35794L9.97001 1.40372C9.99043 1.40663 10.0105 1.40314 10.0303 1.39344Z" fill="#002F52"/>
<path fill-rule="evenodd" clip-rule="evenodd" d="M9.07011 16.4415C9.05286 16.4091 9.02709 16.3819 8.99299 16.3602C8.9585 16.3387 8.91489 16.3259 8.86136 16.322C8.81795 16.3187 8.77672 16.3247 8.73766 16.3396C8.69861 16.3546 8.66451 16.385 8.63557 16.4306C8.60683 16.4762 8.58918 16.541 8.58284 16.6248C8.57768 16.6909 8.57987 16.7501 8.58978 16.8026C8.59949 16.8552 8.62288 16.8998 8.66015 16.9361C8.69722 16.9727 8.75194 16.9935 8.82429 16.9989C8.87564 17.0028 8.92103 16.996 8.96028 16.9786C8.99973 16.9611 9.03224 16.9277 9.05821 16.8787C9.08418 16.8294 9.10044 16.7623 9.10698 16.6775C9.11035 16.6327 9.10936 16.5904 9.10401 16.5505C9.09885 16.5103 9.08755 16.4741 9.07011 16.4415Z" fill="#002F52"/>
<path fill-rule="evenodd" clip-rule="evenodd" d="M9 0C4.02954 0 0 3.80374 0 8.49569C0 13.1876 4.02954 16.9914 9 16.9914C13.9705 16.9914 18 13.1876 18 8.49569C18 3.80374 13.9705 0 9 0ZM17.2545 6.61891L16.6629 6.74775C16.6068 6.75992 16.5623 6.77509 16.53 6.79326C16.4977 6.81142 16.4758 6.83502 16.4645 6.86404C16.4534 6.89307 16.453 6.9294 16.4639 6.97341L16.532 7.25168L16.3512 7.29101L16.2763 6.98408C16.262 6.92547 16.259 6.87284 16.2667 6.82546C16.2747 6.77827 16.2921 6.73689 16.3197 6.70093C16.3471 6.66498 16.3818 6.63539 16.4241 6.61161C16.4663 6.58801 16.5155 6.57003 16.5713 6.55805L17.2057 6.41985L17.2545 6.61891ZM16.9934 5.7764L16.4155 5.95206C16.3606 5.96872 16.3177 5.98726 16.2872 6.00805C16.2566 6.02884 16.237 6.05393 16.2282 6.08371C16.2197 6.11348 16.2227 6.14981 16.2374 6.19269L16.33 6.46442L16.1535 6.51816L16.0513 6.21835C16.0319 6.16105 16.0241 6.1088 16.0277 6.06105C16.0315 6.01348 16.0451 5.97078 16.0693 5.93277C16.0933 5.89475 16.1253 5.86254 16.1654 5.83558C16.2054 5.8088 16.2528 5.78689 16.3072 5.77041L16.927 5.58202L16.9934 5.7764ZM16.6189 4.95711L15.9041 5.77809L15.7823 5.56273L15.9485 5.37509L15.7617 5.04475L15.502 5.0676L15.3802 4.85224L16.5006 4.74794L16.6189 4.95711ZM16.0223 3.99738C16.0612 4.04981 16.0834 4.1 16.0898 4.14831C16.0957 4.19644 16.0882 4.24026 16.0664 4.27977C16.0447 4.31929 16.0134 4.35281 15.9721 4.37996C15.9279 4.40917 15.8809 4.42659 15.8313 4.43221C15.7817 4.43764 15.7325 4.42622 15.6835 4.39719C15.6881 4.45843 15.6819 4.50749 15.6652 4.54419C15.6484 4.5809 15.6156 4.61517 15.5678 4.64663C15.5097 4.68502 15.4561 4.70412 15.4071 4.70431C15.3581 4.70449 15.3139 4.69063 15.2742 4.66254C15.2342 4.63445 15.1959 4.5955 15.159 4.5455L14.8152 4.08127L15.6678 3.51872L16.0223 3.99738ZM14.8626 2.69288L15.4817 3.29738L15.3462 3.42097L15.108 3.18839L14.4956 3.74738L14.345 3.60037L14.9574 3.04138L14.7269 2.81648L14.8626 2.69288ZM14.1613 2.20786C14.2389 2.21554 14.3087 2.24251 14.3712 2.28858L14.6866 2.52172L14.5714 2.66067L14.2924 2.45449C14.2601 2.43071 14.2244 2.41517 14.1855 2.40861C14.1464 2.40187 14.1091 2.40468 14.073 2.41685C14.0371 2.42903 14.0068 2.45019 13.982 2.47996L13.9631 2.50281L14.4214 2.84138L14.3061 2.98034L13.8479 2.64176L13.8328 2.66011C13.812 2.6852 13.7991 2.71554 13.7939 2.75131C13.7887 2.78708 13.7941 2.82359 13.8098 2.86123C13.8256 2.89888 13.8546 2.93314 13.8963 2.96386L14.1589 3.15805L14.0455 3.29494L13.7288 3.06105C13.6784 3.02378 13.6402 2.98034 13.6142 2.93108C13.588 2.88165 13.5747 2.82809 13.5737 2.77041C13.5727 2.71273 13.584 2.65412 13.6076 2.59494C13.6312 2.53558 13.6659 2.47828 13.7116 2.42322C13.777 2.34438 13.8491 2.28689 13.9274 2.25075C14.006 2.21442 14.0837 2.20019 14.1613 2.20786ZM13.8756 1.92697L13.2351 2.11741L13.3023 2.74663L13.0593 2.60225L13.024 1.99195L13.6314 1.78183L13.8756 1.92697ZM13.2874 1.57753L12.7334 2.40861L12.55 2.29981L13.1041 1.46873L13.2874 1.57753ZM11.6415 1.70861L12.1166 1.91479C12.21 1.95543 12.2737 1.94101 12.3076 1.87153C12.3249 1.83595 12.3247 1.80356 12.3072 1.77434C12.2898 1.74513 12.2642 1.72341 12.2307 1.7088L11.9979 1.60786C11.9019 1.5661 11.8394 1.5103 11.8107 1.44026C11.7819 1.37004 11.7867 1.29588 11.825 1.21742C11.8456 1.17528 11.8726 1.14101 11.9059 1.11498C11.9392 1.08895 11.9759 1.07191 12.0162 1.06311C12.0563 1.05449 12.0983 1.053 12.1414 1.0588C12.1848 1.06442 12.2273 1.0764 12.2687 1.09438L12.7845 1.31835L12.7058 1.47996L12.2082 1.26404C12.1711 1.24794 12.1388 1.24401 12.1116 1.25187C12.084 1.25992 12.0626 1.27921 12.0473 1.31067C12.014 1.37921 12.0398 1.43202 12.1249 1.4691L12.3489 1.56629C12.4165 1.59569 12.4687 1.63052 12.505 1.67079C12.5413 1.71086 12.5616 1.75599 12.5655 1.80543C12.5695 1.85506 12.5574 1.9088 12.5292 1.96685C12.4961 2.03483 12.4576 2.08277 12.4134 2.11086C12.3693 2.13876 12.3205 2.15056 12.2672 2.14644C12.2138 2.14232 12.1537 2.12565 12.0866 2.09663L11.5635 1.86947L11.6415 1.70861ZM11.3084 0.779962L11.4486 1.83446L11.1991 1.77004L11.1689 1.52697L10.7864 1.42809L10.6255 1.62172L10.376 1.5573L11.066 0.717603L11.3084 0.779962ZM9.52869 0.477341L10.1417 0.556929C10.2087 0.56573 10.2631 0.584269 10.3048 0.612734C10.3462 0.641386 10.3752 0.676404 10.3911 0.718164C10.4071 0.759925 10.4119 0.804307 10.4049 0.851498C10.3976 0.901872 10.3793 0.946442 10.3498 0.984644C10.3204 1.02266 10.278 1.04888 10.2222 1.06311C10.2728 1.10168 10.3069 1.13914 10.324 1.17565C10.3411 1.21236 10.3456 1.25824 10.3375 1.31273C10.3278 1.37903 10.3063 1.42921 10.2732 1.4633C10.2401 1.49738 10.1992 1.51873 10.1504 1.52697C10.1014 1.53558 10.0451 1.53558 9.981 1.52734L9.38665 1.45L9.52869 0.477341ZM16.0941 8.49569C16.0941 12.1942 12.918 15.1923 9 15.1923C5.08195 15.1923 1.90586 12.1942 1.90586 8.49569C1.90586 4.79719 5.08195 1.79906 9 1.79906C12.918 1.79906 16.0941 4.79719 16.0941 8.49569ZM7.87716 0.70206C7.89283 0.664045 7.91624 0.632209 7.94699 0.606179C7.97754 0.580337 8.01345 0.559738 8.05411 0.545131C8.09498 0.53015 8.13823 0.521161 8.18386 0.517977L8.74984 0.477341L8.76412 0.654681L8.21818 0.69382C8.17751 0.696629 8.14716 0.708052 8.12732 0.72734C8.10728 0.747003 8.09855 0.773782 8.10133 0.808239C8.10728 0.88352 8.15707 0.91779 8.25051 0.911048L8.49631 0.893445C8.5705 0.888202 8.63398 0.894756 8.68656 0.913295C8.73893 0.931647 8.7798 0.961797 8.80876 1.00318C8.83772 1.04476 8.85478 1.09719 8.85994 1.16105C8.86589 1.23558 8.85697 1.29532 8.83276 1.34007C8.80856 1.38464 8.77206 1.41742 8.72306 1.4382C8.67426 1.45899 8.61315 1.4721 8.53975 1.47734L7.96544 1.51854L7.95135 1.34251L8.4729 1.30524C8.57546 1.29794 8.62387 1.25599 8.61772 1.17996C8.61454 1.14082 8.59768 1.11255 8.56733 1.09513C8.53698 1.07753 8.50345 1.07022 8.46655 1.07285L8.21123 1.0912C8.10589 1.09869 8.02257 1.07846 7.96127 1.03052C7.89997 0.982397 7.86605 0.915355 7.8591 0.829026C7.85553 0.782209 7.86149 0.739887 7.87716 0.70206ZM7.57582 0.596442L7.74741 1.56498L7.53535 1.5985L7.36374 0.629962L7.57582 0.596442ZM6.62814 0.8L6.79776 1.35019C6.81383 1.40243 6.83228 1.44345 6.85331 1.47285C6.87434 1.50225 6.90052 1.52153 6.93187 1.53052C6.96321 1.53951 7.0017 1.53764 7.04752 1.52509L7.33796 1.44532L7.38973 1.61348L7.06935 1.7015C7.00824 1.71835 6.9527 1.72416 6.90211 1.71929C6.85172 1.71442 6.80689 1.70037 6.76741 1.6764C6.72793 1.65262 6.6946 1.62153 6.66723 1.58296C6.63985 1.54438 6.61822 1.49906 6.60216 1.44719L6.42024 0.857116L6.62814 0.8ZM5.35255 1.37266C5.37516 1.3191 5.41127 1.27116 5.46067 1.22959C5.50986 1.18801 5.57176 1.15131 5.64595 1.11985C5.72193 1.08745 5.79276 1.06798 5.85862 1.06124C5.92448 1.05449 5.98558 1.06142 6.04173 1.08183C6.09807 1.10243 6.15044 1.13839 6.19964 1.1897C6.24864 1.2412 6.29288 1.30824 6.33236 1.39082C6.47341 1.68577 6.39286 1.89775 6.09053 2.02659C6.01078 2.06049 5.93619 2.07959 5.86596 2.08389C5.79593 2.08801 5.73106 2.07828 5.67115 2.05449C5.61144 2.03071 5.55867 1.99513 5.51343 1.94831C5.46801 1.90112 5.42892 1.84307 5.39579 1.77378C5.3579 1.69457 5.33568 1.62153 5.32894 1.55431C5.3218 1.48708 5.32973 1.42659 5.35255 1.37266ZM4.61476 1.62921C4.68003 1.58914 4.74351 1.56629 4.80581 1.56067C4.8679 1.55506 4.92464 1.56517 4.97562 1.59101C5.02661 1.61667 5.07005 1.65562 5.10596 1.70786C5.13889 1.7558 5.15912 1.80674 5.16666 1.86105C5.1742 1.91517 5.16666 1.96704 5.14325 2.01648C5.12024 2.06592 5.08096 2.10768 5.02522 2.14176L4.69769 2.34251L4.89448 2.62846L4.71296 2.7397L4.14658 1.9161L4.61476 1.62921ZM3.53695 2.01816L3.50938 2.2852L3.41773 2.35955L3.39114 2.13652L3.53695 2.01816ZM3.28957 2.70075C3.29532 2.64326 3.31556 2.58783 3.35067 2.53464C3.38559 2.48165 3.43399 2.43015 3.49569 2.37996C3.55897 2.32865 3.62107 2.2912 3.68217 2.26723C3.74347 2.24326 3.80398 2.23371 3.86409 2.23839C3.92439 2.24326 3.9853 2.26367 4.04779 2.3C4.11008 2.33633 4.17257 2.38895 4.23506 2.45768C4.45844 2.70318 4.44435 2.92809 4.19261 3.13202C4.12635 3.18577 4.06029 3.22378 3.99422 3.24663C3.92836 3.2691 3.86309 3.27696 3.79862 3.27022C3.73415 3.26329 3.67304 3.24326 3.61551 3.21011C3.55778 3.17696 3.50303 3.13165 3.45046 3.07397C3.39055 3.00805 3.3473 2.94382 3.32072 2.88108C3.29433 2.81854 3.28382 2.75861 3.28957 2.70075ZM2.31333 3.54494L3.09615 3.85431L2.6611 3.16404L2.87118 2.93389L3.65916 3.5749L3.52247 3.72472L2.93348 3.2455L3.34333 3.92097L3.19772 4.08052L2.44069 3.7852L3.02969 4.26442L2.89301 4.41423L2.10503 3.77322L2.31333 3.54494ZM1.54183 4.69962C1.55155 4.65936 1.56781 4.62041 1.59043 4.58296L1.87173 4.11741L2.0354 4.20543L1.76421 4.65449C1.74398 4.68783 1.73703 4.71798 1.74279 4.74438C1.74874 4.77097 1.76758 4.79288 1.79933 4.80992C1.86876 4.84738 1.92669 4.82753 1.97311 4.75075L2.09531 4.54869C2.13221 4.48764 2.17347 4.44157 2.2193 4.41105C2.26493 4.38034 2.31413 4.36535 2.3667 4.36592C2.41947 4.36648 2.47501 4.38258 2.53393 4.41423C2.60277 4.45131 2.64999 4.49176 2.67578 4.53558C2.70137 4.5794 2.7097 4.6264 2.70058 4.67622C2.69145 4.72603 2.66883 4.78108 2.63233 4.84157L2.34706 5.31386L2.18458 5.2264L2.44367 4.79756C2.49465 4.71329 2.48493 4.65206 2.41471 4.61423C2.3786 4.59475 2.34448 4.59213 2.31194 4.60599C2.27961 4.61985 2.25441 4.64195 2.23596 4.67228L2.1092 4.88221C2.05683 4.96891 1.99235 5.02284 1.91597 5.04382C1.8394 5.06479 1.76163 5.05393 1.68208 5.01105C1.63943 4.98801 1.60551 4.95955 1.58111 4.92603C1.55651 4.89251 1.54163 4.85637 1.53587 4.81779C1.52972 4.77921 1.53191 4.73951 1.54183 4.69962ZM1.04111 5.74925C1.04508 5.68689 1.06174 5.61985 1.0907 5.54813C1.12046 5.47453 1.15617 5.41367 1.19803 5.36517C1.23989 5.31648 1.28829 5.28108 1.34344 5.25805C1.39879 5.2352 1.46287 5.22584 1.53607 5.22977C1.60928 5.23371 1.69061 5.25206 1.78028 5.28445C2.10047 5.4 2.20145 5.60412 2.08281 5.89663C2.05147 5.97378 2.01259 6.03689 1.96616 6.08651C1.91955 6.13595 1.86618 6.17209 1.80607 6.19513C1.74596 6.21797 1.68188 6.22771 1.61483 6.22453C1.54738 6.22116 1.47636 6.20599 1.40097 6.17884C1.31488 6.14775 1.24465 6.11086 1.1897 6.06741C1.13455 6.02397 1.09507 5.97584 1.07106 5.92247C1.04726 5.86966 1.03714 5.8118 1.04111 5.74925ZM0.743933 6.59625L0.822492 6.26966L1.00342 6.30842L0.927635 6.62341C0.920691 6.65206 0.919104 6.6809 0.922477 6.71048C0.925849 6.74007 0.936562 6.76891 0.954614 6.797C0.972866 6.8249 1.00123 6.85018 1.03972 6.87303C1.07821 6.8955 1.12721 6.91329 1.18593 6.92584C1.3115 6.95281 1.40415 6.9515 1.46446 6.92191C1.52437 6.89251 1.56246 6.84419 1.57853 6.77715L1.65748 6.4485L1.83702 6.48689L1.75052 6.84681C1.73247 6.92209 1.70569 6.9837 1.67018 7.03183C1.63447 7.08015 1.59102 7.1161 1.53984 7.13932C1.48826 7.16273 1.42994 7.17528 1.36408 7.17696C1.29801 7.17846 1.22501 7.17078 1.14486 7.15355C1.0542 7.13408 0.979214 7.10636 0.919501 7.06966C0.859788 7.03314 0.814358 6.99026 0.783212 6.94063C0.752265 6.8912 0.734014 6.83783 0.728459 6.78052C0.722904 6.72359 0.728062 6.66198 0.743933 6.59625ZM0.138867 8.3264L0.749884 8.32752L0.937554 7.77865L1.12522 8.32752L1.73624 8.3264L1.24128 8.6646L1.43113 9.21273L0.937554 8.87284L0.443979 9.21273L0.633831 8.6646L0.138867 8.3264ZM6.09688 16.0629C4.91075 15.6575 3.84722 15.0107 2.97276 14.1852C1.72751 13.0097 0.865938 11.4723 0.580069 9.75449C0.632442 9.76853 0.686005 9.77958 0.740759 9.78745C1.03079 11.4521 1.87173 12.9414 3.08107 14.083C3.92717 14.8815 4.9534 15.5099 6.09727 15.9092C6.09648 15.9365 6.09588 15.9637 6.09588 15.9912C6.09588 16.0152 6.09608 16.0391 6.09688 16.0629ZM6.17742 15.3464C5.16289 14.9738 4.25153 14.406 3.4951 13.6921C2.38217 12.6416 1.60471 11.2742 1.32718 9.74569C1.37717 9.73089 1.42597 9.71348 1.47319 9.69325C1.7408 11.203 2.50557 12.5536 3.60341 13.5899C4.3412 14.2863 5.22915 14.8406 6.21769 15.2062C6.20301 15.2522 6.18952 15.2991 6.17742 15.3464ZM8.20588 15.832C8.18604 15.9386 8.14477 16.0069 8.08248 16.0369C8.02019 16.067 7.94064 16.074 7.84403 16.0579L7.63652 16.0234C7.5899 16.0157 7.55002 16.0206 7.51689 16.0382C7.48377 16.0556 7.46413 16.0809 7.45817 16.1135L7.43834 16.2202L8.08962 16.3283L8.05868 16.4938L7.19829 16.3509L7.25186 16.0631C7.25761 16.0318 7.27209 15.997 7.2953 15.9584C7.31831 15.9197 7.35184 15.8876 7.39568 15.8625C7.43953 15.8373 7.49269 15.8298 7.55499 15.8403L7.79622 15.8803C7.84502 15.8884 7.88489 15.8867 7.91624 15.8753C7.94758 15.8639 7.96702 15.8376 7.97476 15.7964C7.9823 15.7558 7.97238 15.7247 7.945 15.7028C7.91783 15.6807 7.88271 15.6661 7.84006 15.6592L7.35601 15.5788L7.38735 15.4107L7.92834 15.5006C7.99896 15.5124 8.05689 15.5322 8.10212 15.5603C8.14735 15.5882 8.17909 15.6249 8.19675 15.6706C8.21421 15.7163 8.21738 15.7702 8.20588 15.832ZM9.33626 16.118C9.32674 16.2356 9.30154 16.3281 9.26028 16.3957C9.21901 16.4631 9.16247 16.5101 9.09046 16.5361C9.01885 16.5624 8.92918 16.5715 8.82205 16.5639C8.72346 16.5567 8.64152 16.5384 8.57645 16.5086C8.51139 16.4786 8.4608 16.4401 8.42549 16.3923C8.38998 16.3446 8.36637 16.2908 8.35446 16.2311C8.34276 16.1712 8.33998 16.1049 8.34574 16.0318C8.35268 15.9449 8.37331 15.8674 8.40803 15.7989C8.44255 15.7305 8.49829 15.6768 8.57507 15.6378C8.65164 15.5989 8.75222 15.5837 8.87681 15.5927C8.96072 15.5987 9.03293 15.6129 9.09284 15.6356C9.15295 15.6582 9.20215 15.691 9.24064 15.7333C9.27892 15.7758 9.3061 15.829 9.32237 15.8931C9.33864 15.9569 9.3432 16.032 9.33626 16.118ZM9.7354 16.5713L9.65863 15.6172L9.86752 15.6022L9.9443 16.5564L9.7354 16.5713ZM10.5938 16.4807L10.4698 15.5311L10.6777 15.5069L10.8017 16.4565L10.5938 16.4807ZM11.7454 15.2195C12.7486 14.8543 13.6497 14.2948 14.3964 13.5897C15.4942 12.5534 16.259 11.2028 16.5266 9.69307C16.5738 9.7131 16.6226 9.73071 16.6726 9.7455C16.3951 11.274 15.6178 12.6414 14.5047 13.6919C13.739 14.4148 12.8145 14.9874 11.7849 15.3599C11.7732 15.3127 11.7599 15.2659 11.7454 15.2195ZM15.0272 14.1852C14.1427 15.0202 13.0643 15.6725 11.8615 16.0771C11.8625 16.0487 11.8631 16.02 11.8631 15.9912C11.8631 15.9685 11.8627 15.9459 11.8621 15.9232C13.0224 15.5247 14.0629 14.891 14.9187 14.083C16.1281 12.9414 16.969 11.4521 17.259 9.78745C17.3138 9.77958 17.3676 9.76853 17.4197 9.75449C17.1341 11.4725 16.2725 13.0099 15.0272 14.1852ZM17.0624 8.87284L16.5689 9.21273L16.7587 8.6646L16.2638 8.3264L16.8748 8.32752L17.0624 7.77865L17.2501 8.32752L17.8611 8.3264L17.3662 8.6646L17.556 9.21273L17.0624 8.87284Z" fill="#002F52"/>
</svg>
