<svg width="58" height="58" viewBox="0 0 58 58" fill="none" xmlns="http://www.w3.org/2000/svg">
<path fill-rule="evenodd" clip-rule="evenodd" d="M33.9334 31.5185C31.1024 31.5185 28.8073 29.1408 28.8073 26.2078C28.8073 23.2749 31.1024 20.8965 33.9334 20.8965C34.2809 20.8965 34.6201 20.9323 34.9478 21.0004C34.8066 21.3399 34.6884 21.6754 34.5939 22.0076C34.4981 21.9957 34.4035 21.9878 34.3128 21.9845C34.2553 22.3822 34.1314 24.7308 34.1091 25.2602C34.0618 26.3905 33.9877 27.5016 33.9935 28.6537C34.1966 28.6491 34.6143 28.6193 34.7785 28.5518C34.9126 28.0237 35.05 27.6624 35.2129 27.3527C35.2876 27.4837 35.3668 27.6141 35.4505 27.7438C35.3029 27.9933 35.2001 28.2289 35.1662 28.4413C35.3591 28.3824 35.5623 28.3017 35.7692 28.2044C35.8037 28.2507 35.8382 28.297 35.8733 28.3427C35.6306 28.4486 35.3821 28.5472 35.1196 28.657C35.0845 29.6874 35.9819 29.5312 36.6482 29.2367C36.7018 29.2923 36.7561 29.3472 36.8111 29.4022C35.9149 29.8224 34.7721 30.0646 34.7702 28.7768C34.6418 28.7742 34.3684 28.8999 33.9915 28.89C34.0113 29.6795 34.0024 30.2115 34.1551 30.9434C35.3087 30.9289 36.3658 30.3591 37.1074 29.6874C37.2026 29.7761 37.3004 29.8648 37.4006 29.9528L37.4913 30.0322C36.5683 30.952 35.3151 31.5185 33.9334 31.5185ZM38.8775 27.6154C38.7107 28.2447 38.4354 28.8271 38.0739 29.3393C38.0158 29.0375 37.9564 28.6736 37.9193 28.2917C38.1889 27.9681 38.3652 27.622 38.4757 27.2773C38.6009 27.4003 38.7363 27.5128 38.8775 27.6154ZM29.273 24.7884C29.3911 24.5706 29.5374 24.3364 29.676 24.1643C30.0887 25.1007 30.6738 25.5805 31.2155 26.2482C31.6013 26.7234 32.4943 27.6697 32.6514 28.4479C31.5278 28.1567 29.7003 26.814 29.1918 25.5831C29.029 25.1881 29.0986 25.1106 29.273 24.7884ZM33.485 21.9944C33.4991 22.5377 33.561 23.1068 33.5878 23.6567C33.614 24.1974 33.6504 24.748 33.6817 25.29C33.7469 26.4209 33.7686 27.5122 33.7993 28.6603C33.4799 28.6504 33.3279 28.6153 33.0411 28.5664C32.7191 26.9934 31.5342 25.9981 30.6783 24.57C30.0382 23.5019 30.1526 23.5198 30.6936 23.1042C31.4231 22.5417 32.4496 22.0314 33.485 21.9944ZM37.9072 27.0516C37.9781 26.9907 38.0477 26.9278 38.1161 26.8643C38.0835 26.8193 38.0515 26.7736 38.0209 26.7267L37.973 26.6525C37.9436 26.7803 37.9219 26.9139 37.9072 27.0516ZM28.9344 25.9729C29.372 27.035 31.6792 28.344 32.6936 28.6636C32.7651 29.9541 31.3209 29.3545 30.7498 29.0197C29.2909 28.1647 29.0373 27.1806 28.9344 25.9729ZM33.7986 28.89C33.7814 29.6821 33.7852 30.2102 33.6351 30.9428C32.8002 30.9315 31.9277 30.5755 31.3541 30.2095C31.0277 30.0011 30.7581 29.7721 30.5122 29.5299C30.1449 29.1673 30.104 29.0243 29.8428 28.6928C29.9635 28.7656 30.0919 28.8708 30.2247 28.9595C31.0187 29.4909 33.0321 30.4981 33.0481 28.7795C33.2659 28.7927 33.5137 28.8926 33.7986 28.89Z" fill="#002F52"/>
<path d="M30.5111 14.2034C30.5923 14.8248 32.1649 20.2076 31.9011 16.8889C31.8334 16.0398 31.1244 14.3318 30.5297 13.85L30.5111 14.2034ZM46.2152 22.4298C47.7106 22.7044 48.3615 23.9744 48.3615 23.9744C47.8671 23.805 46.9485 23.4847 46.7103 23.6832C47.7636 24.2741 48.7224 26.9053 49.2481 27.9767C47.7508 26.3766 46.5863 25.9378 45.441 26.2952C46.4982 25.6751 47.6186 26.1959 47.8255 26.053C47.4257 24.1663 45.8588 23.4231 46.2778 23.3874C46.6579 23.3543 47.4928 23.3728 47.6416 23.4853C47.4276 22.9414 47.0188 22.6402 46.2152 22.4298ZM45.8888 17.5857C45.144 18.2984 44.2651 18.1627 44.2651 18.1627C44.5493 17.9576 45.0801 17.5784 45.0814 17.3713C44.3647 17.7194 42.7026 17.225 41.97 17.098C43.3548 16.8975 44.0441 16.4302 44.3398 15.6646C44.2063 16.4839 43.496 16.8955 43.4807 17.0642C44.5551 17.5764 45.5547 17.006 45.4008 17.2489C45.2609 17.4699 44.9102 17.9199 44.7952 17.9576C45.1459 18.0516 45.4583 17.9444 45.8888 17.5857ZM40.2894 15.8413C40.6912 14.8771 41.5478 14.6309 41.5478 14.6309C41.3683 14.938 41.0316 15.5071 41.1115 15.6977C41.6302 15.0783 43.3433 14.8308 44.0619 14.6389C42.8745 15.4045 42.4286 16.1212 42.4574 16.9458C42.2581 16.1411 42.7461 15.4661 42.6943 15.3052C41.512 15.2894 40.8215 16.2311 40.8668 15.9439C40.9077 15.6831 41.0521 15.1246 41.1421 15.0412C40.7863 15.1027 40.5423 15.3324 40.2894 15.8413ZM43.947 21.9408C44.4196 22.1684 44.571 22.7177 44.2612 23.2391C43.9521 23.7606 43.0604 23.9744 42.718 23.846C42.3756 23.7176 42.4465 23.7024 42.3564 23.5945C42.382 23.6071 42.1546 23.523 42.4356 23.6283C42.7167 23.7335 43.7055 23.482 43.9789 23.0214C44.2517 22.5608 44.1801 22.2187 43.947 21.9408ZM37.0425 17.3752C37.0425 17.3752 34.8177 19.1944 36.8202 20.0104C38.0071 20.2864 39.0642 20.1851 40.1399 20.1176C40.1297 20.1494 40.1201 20.1818 40.1118 20.2149C39.9119 21.0057 40.3309 21.8958 41.0489 22.2028C41.7298 22.494 42.4344 22.1552 42.6758 21.4438C42.3449 21.8355 41.8141 21.9772 41.298 21.7561C40.6816 21.4927 40.2849 20.7992 40.3124 20.107C42.0945 20.0031 44.5436 19.5472 47.1395 21.5947C43.2884 16.5838 36.7525 20.064 37.0425 17.3752ZM42.3762 24.0478C42.495 24.6514 44.8591 24.6103 44.8668 22.2194C45.5024 23.3576 45.4008 25.4316 44.3864 26.8266C44.3251 26.3051 43.9942 25.9908 43.6736 25.8174C43.6736 25.8174 44.1073 26.4401 43.9578 27.3196C43.7898 27.4811 43.6052 27.626 43.4027 27.7517C43.4896 27.1753 43.5599 26.2343 43.1664 25.9034C43.1664 25.9034 43.2909 27.1965 42.6975 28.0793C42.5033 28.1428 42.2983 28.1911 42.0805 28.2209C43.0259 25.7724 42.3762 24.0478 42.3762 24.0478ZM47.0328 21.0249C47.0328 21.0249 41.3376 14.4906 38.3922 17.5658C38.4523 18.5479 42.4593 15.8883 47.0328 21.0249ZM35.7196 20.4968C35.7196 20.4968 42.3021 21.0017 40.8809 27.7934C40.8809 27.7934 39.2495 27.7795 38.3776 26.4408C38.7008 26.4752 40.3232 26.505 39.7056 25.0524C39.7056 25.0524 36.5615 24.1325 37.6551 29.5484C34.8215 27.0575 33.85 24.1186 35.7196 20.4968ZM35.8672 20.8508C34.4849 22.9308 35.1818 26.7147 36.5475 27.7047C35.1633 26.7617 35.0374 22.6594 36.3833 22.0327C38.1106 21.8852 39.6653 22.6177 40.5455 23.7381C39.7081 22.0526 37.2093 21.0494 35.8672 20.8508ZM41.8614 20.4002C41.8876 20.4346 41.9112 20.4703 41.9323 20.5067C42.0134 20.6444 42.0581 20.786 42.0632 20.9111C42.0683 21.0408 42.0319 21.1539 41.9521 21.2294C41.9419 21.2393 41.9304 21.2486 41.9182 21.2572C41.8052 21.3372 41.6474 21.3405 41.4832 21.281C41.3229 21.2227 41.1556 21.1043 41.0195 20.9395C40.9818 20.8939 40.948 20.8469 40.9192 20.7999C40.8892 20.7509 40.8636 20.7013 40.8432 20.6523L40.7263 20.375L40.9052 20.6093L40.9237 20.6338L40.9428 20.6576C41.0687 20.8098 41.2226 20.919 41.3702 20.9719C41.5139 21.0242 41.6493 21.0229 41.7439 20.9554C41.8084 20.9097 41.8448 20.8383 41.855 20.7536C41.8659 20.6622 41.8473 20.5544 41.8001 20.4425L41.6774 20.1514L41.8614 20.4002ZM43.8262 38.2612C43.6257 43.3528 42.6036 41.9982 43.3229 37.1521C43.6557 34.9094 43.8058 37.7133 43.8262 38.2612ZM44.9083 35.6988C46.3219 36.7246 46.221 38.3413 46.1839 38.3631C45.7585 37.475 45.3331 36.5869 44.9083 35.6988ZM49.2653 34.9497C48.0683 33.1385 45.427 32.3186 45.427 32.3186C49.1893 32.5661 50.0037 34.11 49.2653 34.9497ZM45.0303 34.1583C45.4979 34.4633 46.1105 35.3018 46.0836 35.3203C45.7655 35.0602 45.4621 34.7684 45.1268 34.5467C44.3232 34.016 43.6046 34.2251 43.1887 35.1443C40.6848 42.3191 42.7474 50.9049 44.1929 41.3066C44.4324 39.7158 44.4727 38.2314 44.4867 36.6372C44.6356 36.9443 44.7365 37.1713 44.8521 37.3877C45.2788 38.1838 45.6921 38.9905 46.1475 39.7654C46.3896 40.177 46.9025 40.5615 47.2692 40.1433C47.494 39.8872 47.4231 39.5258 47.3516 39.2002C47.1542 38.2983 46.9051 37.4089 46.6783 36.5141C46.6311 36.3289 46.5876 36.1422 46.5135 35.8352C46.8259 36.0039 47.0284 36.1078 47.227 36.2223C47.5886 36.4308 47.9361 36.6849 48.3117 36.8417C48.5621 36.9463 48.9268 36.8966 48.9875 36.5472C49.0322 36.2891 48.8661 36.0039 48.7205 35.8193C48.387 35.3958 48.044 34.9683 47.648 34.6208C46.5467 33.6527 45.3446 32.887 44.0345 32.349C44.4037 32.3649 44.7697 32.4046 45.1159 32.529C46.3519 32.973 47.4787 33.699 48.5493 34.5461C49.7291 35.4798 50.3084 36.8775 50.4062 38.5206C50.4662 39.5344 50.0127 39.8177 49.2347 39.3445C48.9 39.1407 48.5863 38.8879 48.2267 38.6311C48.3295 39.1619 48.4739 39.6284 48.4982 40.0983C48.5282 40.6786 48.5614 41.2689 48.509 41.8447C48.4656 42.3205 48.2318 42.83 47.7834 42.8505C47.4736 42.8644 47.181 42.6679 46.9415 42.4482C46.7684 42.2834 45.9271 41.2961 45.8562 41.0704C45.1919 44.051 43.7592 48.3776 40.5053 49.8586C40.3041 48.9772 40.5589 46.8787 40.658 45.0992C40.7838 42.8261 40.7391 32.8043 44.0166 33.6791C44.4082 33.783 44.6784 33.9518 45.0303 34.1583ZM45.4672 30.4908C45.0252 29.6119 44.2632 29.2427 42.9339 28.9224C42.9562 28.7894 44.1271 28.9336 44.2395 28.9561C45.151 27.8265 45.5803 27.7299 45.5803 27.7299C45.3312 27.3441 44.6081 27.3864 44.4088 27.3924L44.4075 27.3831C46.8597 26.2316 47.7087 27.9582 47.7087 27.9582C46.7198 27.7491 45.632 28.8125 45.2571 29.2208C49.1695 30.5146 49.5707 34.1192 49.5707 34.1192C47.7642 31.0228 43.3044 30.9044 41.7324 33.3926C40.0039 36.8457 39.3753 44.9894 38.9531 49.0354C38.7621 50.8698 38.9697 50.4516 36.4638 50.93C31.4303 51.8902 34.7276 51.65 36.3092 46.5491C37.6155 42.337 36.2588 44.8047 34.8784 46.563C34.0384 47.6331 31.438 51.566 30.4581 51.7129C29.2406 51.8949 25.4093 51.5812 24.02 51.4429C28.4205 48.2625 34.4658 45.6028 37.176 40.7309C30.3035 45.3917 24.6632 45.7438 16.8671 46.9376C13.4944 47.4544 13.9741 48.373 11.633 46.1289C10.7388 45.2719 10.176 44.5619 9.49126 43.5295C16.5311 45.3712 25.7728 44.1496 32.6983 41.2041C25.3474 43.3753 16.2762 43.9908 8.94256 42.2913C7.53599 40.8063 7.79086 39.8025 7.79086 39.8025C9.01857 40.6952 20.9744 44.1588 31.3454 40.0407C31.4789 39.2049 31.6156 38.3691 31.7516 37.5392C33.0975 37.3361 34.4428 37.1124 35.7918 36.8688C34.5954 37.9402 33.3428 38.8998 32.0602 39.7429C35.2029 38.377 38.1719 36.2838 40.6158 33.1709C42.329 30.9891 42.7838 30.813 45.4672 30.4908ZM45.0712 30.2433C42.2651 29.8105 40.9365 31.6019 39.4187 33.7175C39.367 32.3662 40.053 30.4828 40.0447 30.4921C41.077 29.4399 44.3347 28.9125 45.0712 30.2433ZM16.9482 48.5781C23.0759 46.6954 27.2911 46.9197 33.7107 43.6685C35.0157 43.0074 36.6522 41.8175 34.1617 43.9345C30.9289 46.6828 26.2691 48.4127 22.5285 50.5674C21.1756 51.3469 18.5713 49.8163 17.3059 49.2802L16.7253 49.0341L16.526 48.7965L16.9482 48.5781ZM12.1543 31.0361C12.268 30.3253 11.9761 30.0183 11.4101 30.0123C10.8148 30.0063 10.2195 29.9997 9.62476 29.9938C9.37883 31.5079 9.13419 33.0068 8.88698 34.4872C8.64234 35.9503 8.39641 37.3989 8.14921 38.829C8.08597 39.195 8.14282 39.4927 8.35298 39.6992C8.35298 39.6992 8.35298 39.6979 8.35298 39.6966C8.36894 39.7138 8.39194 39.733 8.4111 39.7502C8.52416 39.8415 8.66916 39.913 8.85441 39.9533C9.9863 40.2002 11.122 40.4212 12.2578 40.6138C12.3031 40.3345 12.3548 40.0566 12.4002 39.7773C12.4162 39.678 12.4519 39.596 12.5554 39.6112C12.6685 39.6284 12.6717 39.7164 12.6557 39.8157C12.6104 40.0969 12.5618 40.3762 12.5165 40.6568C13.6228 40.8077 14.7317 40.9493 15.8419 41.0512C16.4557 41.1075 16.7924 40.7104 16.8933 40.0314C17.1386 38.379 17.3922 36.7213 17.6374 35.0616C17.8834 33.3966 18.1357 31.7256 18.3848 30.052C17.7831 30.0507 17.1846 30.0487 16.586 30.0467C15.9581 30.0447 15.6221 30.4497 15.5219 31.1128C15.3475 32.2623 15.1693 33.4105 14.9981 34.5527C14.8269 35.6909 14.6512 36.8278 14.4807 37.9588C14.4672 38.0475 14.4027 38.1639 14.2865 38.152C14.1728 38.1408 14.1338 38.017 14.1472 37.9283C14.3408 36.6491 14.542 35.3613 14.7362 34.0669C14.9304 32.7692 15.1309 31.4669 15.3283 30.1605C14.4289 30.1559 13.5295 30.1466 12.6302 30.1394C12.4328 31.4073 12.2328 32.6666 12.038 33.9187C11.8445 35.1641 11.6426 36.401 11.4491 37.6305C11.4357 37.7152 11.3718 37.8211 11.2581 37.8066C11.1418 37.7913 11.1022 37.6729 11.1156 37.5895C11.2868 36.5122 11.4625 35.4269 11.633 34.3383C11.8055 33.2457 11.9773 32.1419 12.1543 31.0361ZM16.7547 38.3366C16.6122 39.2578 16.4698 40.1763 16.3312 41.0936C17.502 41.1644 18.6735 41.2094 19.8476 41.2372C19.9868 40.3021 20.1293 39.3637 20.2711 38.4253C19.0964 38.4141 17.9255 38.3902 16.7547 38.3366ZM18.3848 32.8546C18.259 33.7195 18.1325 34.5844 18.0092 35.4467C17.8866 36.307 17.7633 37.1666 17.6406 38.025C18.5336 38.0501 19.4266 38.0647 20.3222 38.07C20.4487 37.2011 20.5745 36.3328 20.7003 35.4652C20.8268 34.5977 20.9526 33.7288 21.0791 32.8605C20.1804 32.8645 19.281 32.8612 18.3848 32.8546ZM18.8083 30.0527C18.6825 30.8812 18.5592 31.7091 18.4365 32.5343C19.3327 32.5389 20.2321 32.5429 21.1315 32.5389C21.2548 31.7111 21.3774 30.8825 21.5033 30.054C20.6039 30.054 19.7045 30.054 18.8083 30.0527ZM23.3276 40.0586C23.2273 40.7355 23.4317 41.1432 24.0487 41.0982C24.6511 41.0545 25.2522 40.9956 25.8571 40.9447C26.103 39.2823 26.3547 37.6233 26.6013 35.9748C26.8465 34.335 27.0989 32.7011 27.3486 31.0758C27.4483 30.4252 27.2451 30.0295 26.6274 30.0335C25.0133 30.0434 23.3991 30.0487 21.7882 30.052C21.5135 31.9142 21.235 33.7777 20.9635 35.64C20.6914 37.5035 20.4167 39.3703 20.1452 41.2365C21.0382 41.2239 21.9306 41.21 22.8268 41.1657C23.0306 39.7727 23.2375 38.381 23.4413 36.9933C23.645 35.6069 23.852 34.2238 24.059 32.8394C24.1235 32.838 24.1886 32.8361 24.2532 32.8347C24.3439 32.8327 24.3854 32.8777 24.3694 32.983C24.1976 34.1589 24.0168 35.3382 23.8456 36.5175C23.6744 37.6947 23.5026 38.8786 23.3276 40.0586ZM27.6303 31.0711C27.4853 32.0095 27.3422 32.9519 27.203 33.8955C27.0637 34.8399 26.9251 35.7908 26.7827 36.7411C26.683 37.4036 26.8734 37.7874 27.4879 37.7331C27.9018 37.6967 28.3157 37.6544 28.7335 37.6067C28.7207 37.7166 28.7073 37.8225 28.6977 37.931C27.9893 38.0111 27.2841 38.0759 26.5789 38.1394C26.4365 39.0606 26.294 39.9858 26.1554 40.9116C27.4623 40.7554 28.7737 40.584 30.0825 40.3736C30.7015 40.2743 31.0356 39.8256 31.1371 39.1903C31.2393 38.5517 31.3409 37.9111 31.4444 37.2745C32.0621 37.1898 32.3981 36.7742 32.499 36.1601C32.644 35.2766 32.7832 34.3965 32.9257 33.5216C33.0675 32.6527 33.2138 31.7858 33.3588 30.9262C32.6114 30.8521 31.8641 30.5344 31.353 30.2082C31.2457 30.14 31.1448 30.0692 31.049 29.9964C30.2601 30.0044 29.4719 30.011 28.6843 30.0176C28.0672 30.0242 27.7306 30.4219 27.6303 31.0711ZM30.0308 34.953C30.0091 35.0953 29.9561 35.1602 29.8398 35.1688C29.7235 35.1774 29.6763 35.1218 29.6974 34.9788C29.8213 34.1523 29.9637 33.3324 30.0953 32.5125C30.1094 32.4264 30.1732 32.3106 30.2895 32.3053C30.4058 32.3007 30.4422 32.4119 30.4287 32.4966C30.2965 33.3145 30.1547 34.1318 30.0308 34.953ZM38.7327 34.0094C38.7813 33.7473 38.8304 33.4839 38.8815 33.2219C38.9825 32.6991 38.7781 32.4039 38.1604 32.4608C37.4456 32.5264 36.7302 32.5859 36.0154 32.6441C36.0544 32.4145 36.0876 32.1822 36.1317 31.9539C36.1521 31.85 36.2224 31.7726 36.3386 31.7653C36.4517 31.7587 36.4862 31.8288 36.4651 31.9327C36.4408 32.0492 36.4293 32.1677 36.4133 32.2861C37.3127 32.2186 38.2121 32.1465 39.1115 32.0717C39.1958 31.6151 39.2776 31.1598 39.367 30.7078C39.4679 30.1996 39.2667 29.8932 38.649 29.9031L38.1885 29.9104L38.3693 30.8058L37.4002 29.9534L37.3651 29.9223L36.8209 29.9296C36.1055 30.4914 35.1678 30.9315 34.1553 30.9441C34.0965 30.6628 34.0614 30.4113 34.0397 30.1638C33.8398 30.32 33.7126 30.5596 33.652 30.8647L33.65 30.8766C33.6475 30.8905 33.6449 30.905 33.6424 30.9196C33.5063 31.7216 33.3798 32.5303 33.2444 33.341C33.1435 33.9445 33.3479 34.286 33.9624 34.2238C34.6772 34.1503 35.3926 34.0702 36.1074 33.9875C36.0716 34.19 36.0422 34.3932 36.0039 34.5944C35.9841 34.6996 35.9036 34.785 35.8001 34.7988C35.6839 34.8147 35.65 34.7439 35.6705 34.638C35.6915 34.5315 35.703 34.421 35.7222 34.3125C34.8228 34.4223 33.9234 34.5196 33.0241 34.6169C32.9461 35.1198 32.8752 35.6227 32.7941 36.1244C32.6842 36.808 32.9755 37.0455 33.5383 36.9555C34.4249 36.8146 35.314 36.665 36.2038 36.5036C37.0828 35.722 37.9304 34.8895 38.7327 34.0094ZM13.1635 25.0153C13.1501 25.1444 13.0888 25.1821 12.9745 25.194C12.9195 25.2 12.8646 25.2052 12.8116 25.2119C12.924 24.4753 13.0364 23.7341 13.1508 22.9903C13.2057 22.9824 13.2613 22.9738 13.3162 22.9658C13.4286 22.9493 13.4682 23.0287 13.4548 23.1472C13.3577 23.7725 13.2606 24.3959 13.1635 25.0153ZM12.7982 26.4123C12.9106 26.4024 12.9502 26.4414 12.9234 26.6009C12.8505 27.0688 12.7803 27.5347 12.71 27.9986C12.6966 28.113 12.6327 28.2037 12.5203 28.209C12.4654 28.2116 12.4104 28.215 12.3555 28.2169C12.4481 27.6233 12.5401 27.0258 12.6327 26.4262C12.6883 26.4216 12.7432 26.4169 12.7982 26.4123ZM15.55 26.6406C15.6381 25.9795 15.4356 25.5891 14.8301 25.6327C14.8409 25.5619 14.8543 25.4925 14.8678 25.421C15.4733 25.376 15.7901 24.9518 15.8917 24.2847C15.9728 23.7236 16.0546 23.1611 16.1357 22.5966L16.2641 21.7078L16.266 21.6959V21.6952L16.2679 21.6827L16.2698 21.6701V21.6694L16.2718 21.6575L16.2737 21.645L16.2743 21.643L16.2756 21.6324L16.2775 21.6198L16.2782 21.6165L16.2794 21.6072L16.2813 21.5947L16.282 21.59L16.2833 21.5821L16.2852 21.5695L16.2858 21.5636L16.2871 21.5563L16.289 21.5437L16.2903 21.5371L16.2909 21.5311L16.2928 21.5186L16.2941 21.51L16.2948 21.5053L16.2967 21.4927L16.298 21.4835L16.2986 21.4802L16.3005 21.4676L16.3024 21.457V21.455L16.3043 21.4425L16.3063 21.4305V21.4299L16.3082 21.4173L16.3101 21.4047V21.4041L16.312 21.3922L16.3139 21.3796V21.3776L16.3152 21.367L16.3171 21.3544L16.3178 21.3511L16.319 21.3419L16.3209 21.3293L16.3216 21.3247L16.3229 21.3167L16.3248 21.3041L16.3254 21.2982L16.3267 21.2916L16.3286 21.279L16.3299 21.2717L16.3305 21.2664L16.3324 21.2539L16.3337 21.2452L16.3344 21.2413L16.3363 21.2287L16.3376 21.2188L16.3382 21.2161L16.3401 21.2036L16.342 21.1923V21.191L16.3439 21.1784L16.3459 21.1658L16.3478 21.1533L16.3497 21.1407V21.1394L16.3516 21.1281L16.3535 21.1155L16.3542 21.1136L16.3554 21.103L16.3574 21.0904L16.358 21.0871L16.3593 21.0778L16.3612 21.0652L16.3618 21.0606L16.3631 21.0527L16.365 21.0401L16.3657 21.0341L16.3669 21.0275L16.3689 21.015L16.3701 21.0077L16.3708 21.0024L16.3727 20.9898L16.374 20.9812L16.3746 20.9772L16.3765 20.9647L16.3778 20.9547L16.3784 20.9521L16.3804 20.9395L16.3823 20.9283V20.9269L16.3842 20.9144L16.3861 20.9018L16.3874 20.8919L16.3887 20.8819L16.3899 20.872V20.87L16.3912 20.8621L16.3925 20.8522L16.3938 20.8422L16.3944 20.8389L16.395 20.833L16.3963 20.8237L16.3982 20.8085L16.3989 20.8045L16.4008 20.7853L16.4014 20.7787V20.7761L16.4021 20.7668L16.4027 20.7575L16.4033 20.7489V20.7483L16.404 20.739L16.4053 20.7205V20.7198L16.4072 20.6933V20.6907V20.6841L16.4078 20.6748L16.4085 20.6662V20.6622V20.6576V20.649V20.6404V20.6344V20.6318V20.6232V20.6146V20.6073V20.606V20.5974V20.5888V20.5855V20.5742V20.5722V20.5636V20.555V20.5484V20.5464L16.4078 20.5385V20.5305V20.5272V20.5226L16.4072 20.5147L16.4065 20.5067V20.5021V20.4988L16.4059 20.4908L16.4053 20.4829L16.4046 20.4769V20.475L16.404 20.467L16.4033 20.4591L16.4027 20.4511L16.4021 20.4432L16.4008 20.4359L16.4002 20.4286V20.4273L16.3995 20.4207L16.3982 20.4134L16.397 20.4061L16.3963 20.4035L16.3957 20.3989L16.3944 20.3916L16.3931 20.3843V20.3836L16.3919 20.377L16.3906 20.3697L16.3893 20.3625L16.388 20.3578L16.3874 20.3558C16.319 20.0276 16.0929 19.8635 15.6784 19.9257C14.7866 20.0594 13.8956 20.2195 13.0051 20.3989L12.9994 20.4002L12.9725 20.4055L12.94 20.4121L12.9253 20.4154L12.9074 20.4187L12.8748 20.4253L12.8512 20.43L12.8422 20.4319L12.8096 20.4386L12.7771 20.4452L12.7445 20.4518L12.7119 20.4584L12.7023 20.4604L12.6468 20.4716L12.6282 20.4756L12.6142 20.4789L12.5816 20.4855L12.5541 20.4915L12.549 20.4928L12.5165 20.4994L12.4839 20.5061L12.48 20.5067L12.4519 20.5127L12.4194 20.5193L12.4059 20.5219L12.3868 20.5259L12.3542 20.5332L12.3319 20.5378L12.3216 20.5398L12.2891 20.5464L12.2578 20.553H12.2565L12.2239 20.5603L12.1913 20.5676L12.1837 20.5696L12.1587 20.5749L12.1262 20.5822L12.1089 20.5861L12.0936 20.5894L12.061 20.5967L12.0348 20.6027L12.0284 20.604L11.9959 20.6113L11.9633 20.6186L11.9607 20.6192L11.9307 20.6258L11.8981 20.6331L11.886 20.6358L11.8649 20.6404L11.8323 20.6477L11.8113 20.6523L11.7998 20.655L11.7672 20.6622L11.7372 20.6689L11.7346 20.6695L11.702 20.6768L11.6695 20.6841L11.6631 20.6854L11.6369 20.6914L11.6043 20.6986L11.5883 20.7019L11.5717 20.7059L11.5391 20.7132L11.5142 20.7185L11.5066 20.7205L11.474 20.7277L11.4414 20.735L11.4401 20.7357L11.4088 20.743L11.3763 20.7502L11.366 20.7529L11.3437 20.7582L11.3111 20.7655L11.2913 20.7701L11.2785 20.7734L11.2459 20.7807L11.2172 20.7873L11.2134 20.788L11.1808 20.7952L11.1482 20.8025L11.1431 20.8039L11.1156 20.8098L11.0831 20.8171L11.069 20.8204L11.0505 20.8244L11.0179 20.8316L10.9943 20.8369L10.9853 20.8389L10.9528 20.8462L10.9202 20.8535L10.9074 20.9342L10.8946 21.015L10.8819 21.0957L10.8691 21.1758L10.8576 21.2492L10.6806 22.3709L10.6794 22.3782L10.6666 22.4583L10.6538 22.5383L10.641 22.6184L10.6283 22.6985L10.6155 22.7786L10.6027 22.858L10.565 23.0969L10.5522 23.1763L10.551 23.1849C10.4047 24.1107 10.2584 25.0292 10.1109 25.9405C9.92179 27.1098 9.73079 28.2659 9.53916 29.4101H11.5098C11.8042 29.4101 12.0533 29.4802 12.2571 29.6086C12.2603 29.5822 12.2635 29.555 12.2667 29.5279C13.2172 29.5299 14.1677 29.5312 15.1194 29.5319C15.1852 29.0905 15.251 28.6491 15.3168 28.207C15.3915 27.6829 15.4708 27.1621 15.55 26.6406ZM19.7901 19.5776L19.7843 19.6173L19.7824 19.6319L19.7748 19.6861L19.7671 19.7404L19.7594 19.7947L19.7518 19.8489L19.7441 19.9032L19.7364 19.9575L19.5876 20.9931L19.5799 21.0474L19.5723 21.1016L19.5665 21.1433C19.4745 21.7839 19.3832 22.4239 19.2925 23.0638C19.1277 24.2252 18.9603 25.3886 18.7949 26.5466C18.6959 27.225 18.8958 27.6326 19.5039 27.6273C20.7981 27.6167 22.0954 27.622 23.3915 27.6478C23.997 27.6597 24.3119 27.2633 24.4128 26.5983C24.5757 25.466 24.7405 24.3357 24.9034 23.2133C25.0024 22.5311 25.1027 21.8508 25.2036 21.1718L25.2068 21.1513L25.21 21.1308L25.2113 21.1222L25.2132 21.1102L25.2164 21.0897L25.219 21.0699V21.0692L25.2222 21.0487L25.2254 21.0282L25.2273 21.0169L25.2285 21.0077L25.2317 20.9872L25.2349 20.9666V20.9647L25.2375 20.9468L25.2407 20.9263L25.2426 20.9124L25.2439 20.9058L25.2471 20.8852L25.2503 20.8647L25.2509 20.8594L25.2535 20.8442L25.2567 20.8237L25.2592 20.8072L25.2598 20.8032L25.263 20.7827L25.2662 20.7622L25.2675 20.7542L25.2694 20.7416L25.2726 20.7211L25.2752 20.7019V20.7006L25.2784 20.6801L25.2816 20.6596L25.2828 20.649L25.2841 20.6391L25.2873 20.6186L25.2905 20.598V20.5967L25.2931 20.5782L25.2963 20.5577L25.2982 20.5444L25.2995 20.5372L25.3026 20.5166L25.3058 20.4961L25.3065 20.4922L25.309 20.4763L25.3122 20.4558L25.3148 20.4399L25.3154 20.4352L25.3186 20.4147L25.3218 20.3942L25.3231 20.3876L25.325 20.3744L25.3282 20.3539L25.3308 20.3353V20.3333L25.3339 20.3128L25.3371 20.2923L25.3384 20.283L25.3403 20.2725L25.3435 20.2519L25.3467 20.2314V20.2308L25.3499 20.2116L25.3531 20.1911L25.355 20.1785L25.3563 20.1705L25.3595 20.15L25.3627 20.1295L25.3633 20.1262L25.3659 20.109L25.3691 20.0885L25.3716 20.0739L25.3723 20.0686L25.3755 20.0488L25.3787 20.0283L25.3793 20.0223L25.3812 20.0084L25.3844 19.9879L25.387 19.97L25.3876 19.9674L25.3908 19.9469L25.394 19.9263L25.3953 19.9177L25.3972 19.9065L25.4004 19.886L25.4036 19.8655C24.8178 19.7821 24.2334 19.7159 23.6489 19.6676C22.9935 19.6133 22.678 20.1421 22.577 20.7675L22.5726 20.7999L22.5681 20.8323L22.5636 20.8647L22.5591 20.8972L22.5547 20.9296L22.5521 20.9494L22.287 22.8394C22.1899 23.531 22.0935 24.2252 21.9964 24.92C21.983 25.0742 21.9082 25.1344 21.8073 25.1338C21.693 25.1325 21.6553 25.0709 21.6687 24.9167C21.7677 24.2192 21.8667 23.5211 21.9657 22.8236C22.0545 22.1989 22.1433 21.5735 22.2321 20.9501L22.2346 20.9316L22.2391 20.8991L22.2436 20.8667L22.2481 20.8343L22.2525 20.8019L22.257 20.7694L22.2615 20.737C22.3605 20.1262 22.1842 19.575 21.654 19.5637L21.6285 19.563H21.6246L21.6029 19.5624H21.5952L21.5774 19.5617H21.5665H21.5524H21.5378H21.5275H21.509H21.502L21.4796 19.5611H21.4764L21.4509 19.5604H21.4502L21.4253 19.5597H21.4209H21.3998H21.3915H21.3742H21.3621H21.3487H21.3334H21.3238H21.3046H21.2989H21.2759H21.2733H21.2478H21.2465H21.2222H21.2171H21.1967H21.1877H21.1711H21.1583H21.1456H21.1296H21.1206H21.1008H21.0957H21.0721H21.0702H21.0453H21.0433H21.0204H21.0146H20.9948H20.9852H20.9693H20.9558H20.9437H20.9271H20.9188H20.8984H20.8875H20.8632H20.8619H20.8364H20.8338H20.8115H20.8051H20.7859H20.7757H20.7604H20.7463H20.7348H20.7169H20.7093H20.6882H20.6844H20.6595H20.6588H20.6333H20.6301H20.6083H20.6013H20.5834H20.5726H20.5579H20.5432H20.5323H20.5138H20.5068H20.4851H20.4819H20.4563H20.4557H20.4308H20.4269H20.4059H20.3982H20.3809H20.3695H20.3554H20.3401H20.3298H20.3107H20.3043H20.2819H20.2794L20.2538 19.5604H20.2526H20.2283H20.2238H20.2034H20.1951H20.1785H20.1663H20.1535H20.1376H20.128H20.1082H20.1024L20.0795 19.5611H20.0775L20.052 19.5617H20.0501L20.0264 19.5624C19.9485 19.5743 19.8693 19.5763 19.7901 19.5776ZM25.4828 21.2227C25.3557 22.0685 25.2292 22.9182 25.104 23.7692C24.9647 24.7129 24.8268 25.6599 24.6882 26.6108C24.5866 27.2733 24.7897 27.6862 25.3946 27.7133C26.7731 27.7749 28.1528 27.8576 29.5326 27.9588C29.1161 27.3659 28.9966 26.7108 28.9334 25.9722C29.1193 26.4229 29.6418 26.9186 30.2595 27.3639L30.3125 27.0456C29.8507 26.6241 29.4585 26.1536 29.2406 25.6936C28.7124 25.6222 28.1841 25.5553 27.6559 25.4944C27.5786 25.4858 27.5415 25.4382 27.5549 25.3383C27.5613 25.2807 27.5703 25.2244 27.5792 25.1675C28.0921 25.2304 28.6057 25.2979 29.1186 25.3714C29.0624 25.145 29.1352 25.0438 29.2732 24.789C29.3914 24.5713 29.5377 24.337 29.6763 24.165C29.9273 24.7341 30.2416 25.1344 30.5712 25.511C30.6204 25.2191 30.6696 24.928 30.7194 24.6375L30.6785 24.5693C30.2678 23.8837 30.1675 23.6455 30.2914 23.4529C29.5013 23.2769 28.7111 23.1187 27.9209 22.9804C27.9299 22.9241 27.9382 22.8666 27.9471 22.8116C27.9714 22.715 28.0219 22.6806 28.0966 22.6945C28.913 22.8487 29.7299 23.0201 30.5463 23.2147L30.6082 23.1677L30.6095 23.167L30.6108 23.1664L30.6114 23.1657L30.6127 23.165L30.6133 23.1644L30.614 23.1637L30.6153 23.163L30.6159 23.1624L30.6165 23.1617L30.6178 23.1604L30.6191 23.1597L30.6204 23.1591L30.6217 23.1584L30.6229 23.1577V23.1571L30.6242 23.1564L30.6248 23.1558L30.6255 23.1551L30.6268 23.1544L30.6274 23.1538L30.628 23.1531L30.6293 23.1525L30.6306 23.1518L30.6319 23.1511L30.6332 23.1505L30.6344 23.1498H30.6351L30.6363 23.1491L30.637 23.1485L30.6376 23.1478L30.6389 23.1472L30.6395 23.1465L30.6402 23.1458L30.6415 23.1445L30.6427 23.1439L30.644 23.1432L30.6453 23.1419L30.6466 23.1412L30.6478 23.1399L30.6485 23.1392L30.6491 23.1386L30.6504 23.1379L30.651 23.1372L30.6517 23.1366L30.653 23.1352L30.6542 23.1346L30.6555 23.1339L30.6568 23.1326L30.6581 23.1319L30.6593 23.1306L30.66 23.13L30.6606 23.1293L30.6619 23.128L30.6625 23.1273L30.6632 23.1266L30.6657 23.1247L30.667 23.1233L30.6683 23.122L30.6696 23.1214L30.6708 23.12L30.6715 23.1194L30.6721 23.1187L30.6734 23.1174L30.674 23.1167L30.6747 23.1161L30.6759 23.1147L30.6772 23.1141L30.6785 23.1127L30.6798 23.1114L30.6811 23.1108L30.6823 23.1094L30.683 23.1088L30.6836 23.1081L30.6849 23.1068L30.6855 23.1061L30.6862 23.1055L30.6874 23.1041L30.6887 23.1035L30.69 23.1022L30.6951 23.0982L30.7002 23.0942L30.7053 23.0902L30.7104 23.0863L30.7156 23.0823L30.7207 23.0783L30.7258 23.0744L30.7309 23.0704L30.736 23.0664L30.7411 23.0625L30.7462 23.0585L30.7513 23.0545L30.7564 23.0505L30.7615 23.0466L30.7667 23.0426L30.7718 23.0386L30.7769 23.0347L30.782 23.0307L30.7871 23.0267L30.7922 23.0227L30.7973 23.0188L30.8024 23.0148L30.8075 23.0108L30.8126 23.0069L30.8178 23.0029L30.8229 22.9989L30.828 22.995L30.8331 22.991L30.8382 22.987L30.8433 22.983L30.8484 22.9791L30.8535 22.9751L30.8586 22.9711L30.8637 22.9672L30.8689 22.9632L30.874 22.9592L30.8791 22.9552L30.8842 22.9513L30.8893 22.9473L30.8944 22.9433L30.8995 22.9394L30.9046 22.9354L30.9097 22.9314L30.9148 22.9281L30.92 22.9248L30.9251 22.9215L30.9302 22.9182L30.9353 22.9142L30.9404 22.9102L30.9513 22.903L30.9564 22.8997L30.9621 22.8964L30.9672 22.893L30.9723 22.8897L30.9832 22.8825L30.9889 22.8785L30.9941 22.8752L30.9992 22.8719L31.0043 22.8686L31.01 22.8652L31.0158 22.8619L31.0215 22.8586L31.0234 22.8474L31.0254 22.8361L31.026 22.8341L31.0279 22.8249L31.0298 22.8136L31.0305 22.8097L31.0317 22.8024L31.0381 22.768L31.0394 22.76L31.04 22.7567L31.042 22.7455L31.0439 22.7355V22.7342L31.0522 22.6886L31.0528 22.6859L31.0541 22.6766L31.056 22.6654L31.0567 22.6608L31.0579 22.6535L31.0656 22.6111L31.0662 22.6078L31.0745 22.5622V22.5615L31.0828 22.5172L31.0835 22.5125L31.088 22.488L31.0886 22.4834L31.0905 22.4722L31.0924 22.4636L31.0931 22.4609L31.095 22.4497L31.0969 22.4391V22.4384L31.1033 22.404L31.1052 22.3927L31.1058 22.3894L31.1071 22.3815L31.1103 22.365L31.1116 22.359L31.1135 22.3477L31.1148 22.3405L31.1154 22.3365L31.1173 22.3252L31.1193 22.316L31.1199 22.314L31.1218 22.3027L31.1237 22.2915L31.1256 22.2802L31.1276 22.269L31.1282 22.267L31.1301 22.2571L31.132 22.2458L31.1327 22.2419L31.1339 22.2339L31.1359 22.2227L31.1371 22.2174L31.1384 22.2114L31.1403 22.2002L31.1416 22.1929L31.1422 22.1889L31.1442 22.1777L31.1461 22.1684L31.1467 22.1664L31.1486 22.1552L31.1506 22.1439L31.1525 22.1327C31.2042 21.8481 31.2559 21.5649 31.3077 21.2836C30.7354 21.1056 30.1637 20.9369 29.592 20.78L29.5447 20.7668L29.5236 20.7608C29.4246 20.7337 29.3256 20.7072 29.2259 20.6808L29.2119 20.6768L29.1519 20.6609L29.1174 20.6516L29.0222 20.6265L29.0037 20.6219L28.9749 20.6146L28.9296 20.6027L28.9276 20.602L28.8555 20.5835L28.8331 20.5775L28.7858 20.5656L28.7814 20.5643L28.6428 20.5292L28.6325 20.5266L28.5955 20.5173L28.5584 20.508L28.5476 20.5054L28.5003 20.4935L28.4837 20.4895L28.4096 20.471L28.4051 20.4697L28.3355 20.4525L28.3106 20.4465L28.2633 20.4346L28.2614 20.4339L28.2154 20.4227L28.1873 20.4161L28.1202 20.4002L28.1126 20.3982L28.073 20.3889L28.0385 20.381L28.0257 20.3777L27.9784 20.3664L27.9644 20.3631L27.9305 20.3552L27.8896 20.3459L27.8826 20.3439L27.8156 20.3287L27.7881 20.3221L27.7415 20.3115H27.7402L27.6929 20.3009L27.6667 20.295L27.645 20.2903L27.5971 20.2797L27.592 20.2784L27.5492 20.2691L27.5172 20.2619L27.454 20.248L27.4425 20.2453L27.4061 20.2374L27.3684 20.2288L27.3588 20.2268L27.3116 20.2162L27.2943 20.2122L27.2637 20.2056L27.2196 20.1964L27.2158 20.1957L27.1685 20.1858L27.1455 20.1805L27.1212 20.1752L27.0739 20.1652L27.0714 20.1646H27.0701L26.9475 20.1388L26.9315 20.1355L26.9232 20.1335L26.8842 20.1255L26.8485 20.1183L26.8363 20.1156L26.7884 20.1057L26.7737 20.103L26.7411 20.0964L26.6996 20.0885L26.6932 20.0872L26.6249 20.0733L26.5981 20.068L26.5508 20.0587C25.9478 19.9409 25.615 20.3128 25.516 20.9594L25.5096 21.003L25.5032 21.0467L25.4968 21.0904L25.4904 21.1341L25.4841 21.1777L25.4828 21.2227ZM18.1587 29.4041L21.6195 29.4055H23.4815C23.5499 28.9409 23.6201 28.4757 23.6904 28.0111C24.7603 28.0369 25.8328 28.0707 26.9021 28.1216C27.8692 28.1673 28.8376 28.2288 29.8066 28.295C29.8883 28.3811 29.9778 28.4664 30.0761 28.5498L30.0295 28.8225C29.965 28.7755 29.9024 28.7305 29.8411 28.6941C29.9101 28.7814 29.9637 28.8555 30.0116 28.9244C29.9842 29.0852 29.9573 29.2453 29.9305 29.4061H28.6408C28.2071 29.4061 27.8481 29.557 27.5798 29.8303C27.3633 29.5616 27.0331 29.4061 26.6032 29.4061H23.9983C24.066 28.9462 24.1363 28.4836 24.2065 28.0237C23.1321 27.9999 22.0577 27.982 20.9859 27.9807C19.914 27.9794 19.9204 27.9767 18.6371 27.9966C18.3133 28.0012 18.2737 27.9099 18.2871 27.7875C18.4832 26.4275 18.6837 25.0636 18.8792 23.6984C18.9987 22.8633 19.12 22.0255 19.2414 21.1883L19.2503 21.1281L19.2599 21.0639L19.2689 20.9997L19.2784 20.9355L19.288 20.8714L19.2976 20.8072L19.3072 20.743L19.3168 20.6788L19.3263 20.6146L19.3359 20.5504L19.3455 20.4862L19.3551 20.422L19.3647 20.3578L19.3832 20.2294L19.3928 20.1652L19.4113 20.0369L19.4209 19.9727L19.4298 19.9085L19.4394 19.8443L19.4483 19.7801L19.4579 19.7159L19.463 19.6808L19.4765 19.5875C18.5918 19.6345 17.709 19.6967 16.8262 19.7821L16.7566 20.2625L16.7464 20.3327L16.7349 20.4114L16.7234 20.4902L16.5982 21.3551L16.5867 21.4339L16.5752 21.5126L16.5637 21.5914L16.5554 21.6509C16.4027 22.7051 16.2507 23.7566 16.0993 24.8055C15.8706 26.3891 15.6368 27.9635 15.4075 29.5292L16.0246 29.5299C16.2092 29.4498 16.4161 29.4075 16.6422 29.4075L18.1587 29.4041ZM31.2387 20.3413C32.7724 20.9124 34.1713 18.5241 34.5826 17.268C34.5443 17.2528 32.0263 23.3814 29.3582 14.4152C27.424 7.91598 31.4942 11.8919 32.7647 17.1099C32.8663 16.6453 33.9094 11.4584 34.8311 12.7555C35.0579 13.0744 34.895 15.8042 34.8861 16.5593C35.0662 16.3363 37.5995 12.909 37.1211 14.9128C36.7123 16.6241 34.4766 19.5776 33.2572 20.9402C33.9292 20.4816 34.6778 19.7563 35.3869 18.8966C35.4073 18.2938 35.8423 17.7399 36.2428 17.4308L36.6829 17.0914C37.9374 15.0703 38.6931 12.8441 37.9049 11.5868C37.3811 10.7516 36.246 12.7614 35.9106 13.2591C35.7331 7.2112 33.1806 11.3949 33.0809 12.7356C32.4977 12.5272 31.1589 7.3654 26.1995 8.65782C25.5345 8.8312 26.4186 10.2189 26.5757 10.6881C27.539 13.5562 28.9015 18.5042 31.2387 20.3413ZM19.0057 19.0489C20.3017 18.9238 21.5876 18.9304 22.8792 19.1018C22.6754 19.1329 22.4691 19.1653 22.2615 19.1977C22.3036 19.2255 22.3445 19.2573 22.3835 19.2924C22.4576 19.3586 22.5208 19.4327 22.5745 19.5127C22.6122 19.475 22.6524 19.44 22.6946 19.4062C22.982 19.1786 23.3263 19.0905 23.684 19.1203C24.2806 19.1693 24.8759 19.2375 25.4694 19.3215L26.0149 19.3989L25.997 19.52C26.1924 19.4671 26.4135 19.4605 26.6581 19.5081C27.5032 19.6729 28.3432 19.8681 29.1768 20.0865C28.3694 18.6088 27.866 16.7605 27.5172 15.8446C27.318 15.3218 24.6409 8.70481 24.4045 8.68363C24.1874 8.66378 21.5339 9.8265 21.1251 10.0197C22.8376 11.0799 24.4812 12.6926 24.9143 14.7388C24.0347 13.9738 20.2321 10.6802 19.5046 10.8701C19.1187 10.9707 16.7579 12.6701 16.2896 13.0334C19.3302 13.3954 24.2717 15.0591 25.652 17.6049C21.403 16.4693 16.2833 16.9107 11.5002 18.2488C11.5053 18.2481 11.4452 18.0317 10.673 19.2375C10.0099 20.2711 9.49445 21.2472 8.9943 22.3272C9.46634 22.0096 9.87132 21.7608 10.2571 21.5497L10.3817 20.7589L10.4405 20.385L10.7975 20.3022C12.3861 19.9323 13.9863 19.6087 15.5979 19.3665C15.8483 19.3288 16.1012 19.3453 16.3248 19.4479L16.3516 19.2613L16.7745 19.2202C17.5167 19.1488 18.2609 19.0932 19.0057 19.0489ZM10.0802 22.668C9.59985 22.9208 9.13163 23.1915 8.67875 23.482C8.15432 23.8189 9.01154 23.6203 9.97225 23.3477L10.0802 22.668ZM33.5459 23.0141C33.6941 22.9354 33.8551 22.8487 34.0308 22.7547C34.8394 19.4155 35.0311 21.4358 32.6133 22.13C32.8989 22.0533 33.1914 22.005 33.4846 21.9944C33.4935 22.3279 33.5197 22.6714 33.5459 23.0141ZM32.5539 22.1472C32.4881 22.1651 32.4211 22.1823 32.3514 22.1982C32.1215 22.2505 31.9017 22.2664 31.6916 22.2491L31.645 22.5046C31.9324 22.3603 32.2384 22.2366 32.5539 22.1472ZM40.2268 14.214C40.3635 14.4046 39.9694 15.695 39.9694 15.695C41.0585 13.7521 40.5832 12.5814 40.5832 12.5814C40.3884 13.3841 39.9655 13.9367 39.4539 14.5177C39.5241 12.9686 39.2258 11.5762 38.1022 11.3433C39.137 13.0162 38.7391 14.8784 37.1697 17.2575C37.4341 17.2813 38.6701 15.0703 38.9039 14.3973C39.3415 14.9717 39.1224 16.6751 39.3478 15.3476C39.3696 15.2199 40.0786 14.5422 40.2268 14.214ZM20.333 14.8308C19.4886 14.5958 15.5691 13.9519 14.8511 14.2583C14.5407 14.3914 12.5497 16.6718 12.2118 17.0874C16.6972 16.1602 20.045 15.8029 24.1158 16.7419C23.1864 15.8697 21.5946 15.2775 20.333 14.8308ZM33.9452 14.9949C33.841 15.4793 32.8107 19.3506 33.8794 16.6764C34.2115 15.8459 34.1572 14.0618 33.9452 14.9949Z" fill="#002F52"/>
<path fill-rule="evenodd" clip-rule="evenodd" d="M10.283 21.3862L8.45354 34.1497C7.55224 31.7693 7.1479 22.4748 10.283 21.3862Z" fill="#002F52"/>
<path fill-rule="evenodd" clip-rule="evenodd" d="M18.4004 6.45808C18.5109 6.59771 18.6469 6.69168 18.8098 6.73933C18.9733 6.78697 19.1599 6.76183 19.3707 6.66322C19.6281 6.54278 19.7878 6.36477 19.8497 6.13117C19.9117 5.8969 19.8593 5.58918 19.692 5.20602C19.5674 4.91947 19.4096 4.69514 19.2186 4.533C19.0289 4.37087 18.7683 4.36756 18.4368 4.52242C18.2975 4.58793 18.1813 4.67925 18.0899 4.79771C17.9979 4.91617 17.9494 5.07102 17.9411 5.26293C17.9334 5.45484 17.9864 5.6805 18.1001 5.94124C18.1909 6.14639 18.2905 6.31911 18.4004 6.45808Z" fill="#002F52"/>
<path fill-rule="evenodd" clip-rule="evenodd" d="M15.9061 6.90077C15.9355 6.78694 15.8997 6.64863 15.7975 6.48584C15.7228 6.36738 15.6359 6.28797 15.5356 6.24827C15.4353 6.20856 15.3267 6.22841 15.2111 6.3065L14.2958 6.9226L14.826 7.76834L15.7138 7.17143C15.8109 7.10393 15.8754 7.01393 15.9061 6.90077Z" fill="#002F52"/>
<path fill-rule="evenodd" clip-rule="evenodd" d="M11.7141 10.344C11.8559 10.5154 11.999 10.6518 12.1421 10.7537C12.2858 10.8556 12.4423 10.9059 12.6116 10.9039C12.7815 10.9026 12.9533 10.8232 13.129 10.667C13.343 10.4764 13.4484 10.2593 13.4439 10.0165C13.4401 9.77426 13.3059 9.49367 13.0415 9.1747C12.8441 8.93646 12.6314 8.76639 12.4046 8.66646C12.1785 8.56588 11.9275 8.63867 11.6515 8.88418C11.5353 8.98742 11.449 9.10918 11.3935 9.24948C11.3379 9.38977 11.3328 9.55257 11.3769 9.73918C11.4222 9.9258 11.5346 10.127 11.7141 10.344Z" fill="#002F52"/>
<path fill-rule="evenodd" clip-rule="evenodd" d="M50.6395 14.9671C50.7456 14.9724 50.8439 14.942 50.934 14.8771C51.0158 14.8182 51.0649 14.7395 51.0809 14.6422C51.0975 14.5456 51.072 14.4463 51.0043 14.3457L50.3795 13.4193L49.7491 13.8759L50.3821 14.8136C50.4473 14.9109 50.5329 14.9625 50.6395 14.9671Z" fill="#002F52"/>
<path fill-rule="evenodd" clip-rule="evenodd" d="M4.22146 20.7278C4.34665 20.8694 4.53765 20.9912 4.79571 21.0931C4.99947 21.1738 5.18791 21.2234 5.36038 21.2426C5.53348 21.2612 5.69445 21.2287 5.84201 21.1434C5.9902 21.058 6.10582 20.9038 6.18822 20.6795C6.28914 20.4062 6.28212 20.1633 6.1665 19.9522C6.05152 19.7411 5.80496 19.5604 5.42553 19.4102C5.14256 19.2977 4.87747 19.2534 4.63218 19.2772C4.3869 19.3003 4.19974 19.4883 4.06943 19.8397C4.0145 19.9879 3.99469 20.1375 4.01066 20.2884C4.02663 20.4399 4.0969 20.5855 4.22146 20.7278Z" fill="#002F52"/>
<path fill-rule="evenodd" clip-rule="evenodd" d="M52.6234 17.5591L51.3798 17.7047L51.8231 18.5657L52.6234 17.5591Z" fill="#002F52"/>
<path fill-rule="evenodd" clip-rule="evenodd" d="M32.5968 3.28568C32.6728 3.20892 32.7181 3.11362 32.7328 3.00046C32.7462 2.89855 32.7245 2.80789 32.6664 2.72914C32.6089 2.65105 32.5214 2.60274 32.4045 2.5862L31.3237 2.43201L31.2189 3.22149L32.3131 3.37767C32.4268 3.39355 32.5214 3.36311 32.5968 3.28568Z" fill="#002F52"/>
<path fill-rule="evenodd" clip-rule="evenodd" d="M35.8221 3.47488L35.0696 4.51121L35.9773 4.76863L35.8221 3.47488Z" fill="#002F52"/>
<path fill-rule="evenodd" clip-rule="evenodd" d="M49.2534 15.6302C49.2917 15.6864 49.3441 15.7275 49.4105 15.7539C49.4776 15.7797 49.5478 15.7884 49.6213 15.7784C49.6947 15.7692 49.7612 15.7427 49.8199 15.7003C49.9253 15.6242 49.9732 15.5329 49.9643 15.4257C49.956 15.3192 49.9285 15.2305 49.88 15.159L49.2553 14.2325L48.621 14.6918L49.2534 15.6302Z" fill="#002F52"/>
<path fill-rule="evenodd" clip-rule="evenodd" d="M32.3198 4.75406C32.3837 4.72031 32.4374 4.67332 32.4808 4.61045C32.5242 4.54825 32.5504 4.48009 32.5606 4.40663C32.5779 4.27494 32.5466 4.17634 32.4642 4.11016C32.3831 4.04398 32.3013 4.00494 32.2176 3.99303L31.1368 3.83884L31.0314 4.63295L32.1256 4.78913C32.1914 4.79906 32.2559 4.78715 32.3198 4.75406Z" fill="#002F52"/>
<path fill-rule="evenodd" clip-rule="evenodd" d="M29.2259 56.0944C29.1704 55.9839 29.0873 55.8913 28.9775 55.8171C28.8663 55.7437 28.7258 55.7 28.5533 55.6868C28.4134 55.6755 28.2806 55.696 28.1547 55.747C28.0289 55.798 27.919 55.9018 27.8258 56.0574C27.7331 56.2129 27.6763 56.4339 27.6559 56.7198C27.6392 56.9454 27.6463 57.1473 27.6782 57.3266C27.7095 57.506 27.7849 57.6582 27.905 57.7819C28.0244 57.907 28.2007 57.9778 28.4339 57.9963C28.5993 58.0096 28.7456 57.9864 28.8721 57.9268C28.9992 57.8673 29.1039 57.7535 29.1876 57.586C29.2713 57.4179 29.3237 57.189 29.3448 56.8998C29.3556 56.7469 29.3524 56.6027 29.3352 56.4663C29.3186 56.3293 29.2822 56.2056 29.2259 56.0944Z" fill="#002F52"/>
<path fill-rule="evenodd" clip-rule="evenodd" d="M29 0C12.9841 0 0 12.9775 0 28.9853C0 44.9931 12.9841 57.9706 29 57.9706C45.0159 57.9706 58 44.9931 58 28.9853C58 12.9775 45.0159 0 29 0ZM55.5978 22.5822L53.6916 23.0217C53.5107 23.0633 53.3675 23.115 53.2633 23.177C53.1591 23.239 53.0888 23.3195 53.0524 23.4185C53.0166 23.5175 53.0153 23.6415 53.0504 23.7916L53.2697 24.741L52.6874 24.8752L52.4457 23.828C52.3997 23.6281 52.3901 23.4485 52.415 23.2869C52.4406 23.1259 52.4969 22.9847 52.5857 22.862C52.6739 22.7393 52.7858 22.6384 52.9219 22.5572C53.0581 22.4767 53.2166 22.4154 53.3963 22.3745L55.4405 21.903L55.5978 22.5822ZM54.7565 19.7077L52.8945 20.307C52.7174 20.3639 52.5793 20.4271 52.4809 20.4981C52.3824 20.569 52.3192 20.6546 52.291 20.7562C52.2635 20.8578 52.2731 20.9817 52.3204 21.128L52.619 22.0551L52.05 22.2384L51.7208 21.2155C51.6582 21.02 51.6333 20.8418 51.6448 20.6789C51.6569 20.5166 51.701 20.3709 51.779 20.2412C51.8564 20.1115 51.9593 20.0016 52.0884 19.9096C52.2175 19.8183 52.3703 19.7435 52.5454 19.6873L54.5424 19.0445L54.7565 19.7077ZM53.5497 16.9125L51.2465 19.7135L50.854 18.9787L51.3897 18.3385L50.7876 17.2115L49.9508 17.2895L49.5583 16.5547L53.1687 16.1988L53.5497 16.9125ZM51.6275 13.6381C51.7528 13.817 51.8244 13.9882 51.8448 14.1531C51.864 14.3173 51.8397 14.4668 51.7694 14.6016C51.6997 14.7364 51.5987 14.8508 51.4658 14.9434C51.3232 15.0431 51.1717 15.1025 51.0119 15.1217C50.8521 15.1402 50.6936 15.1012 50.5357 15.0022C50.5504 15.2111 50.5306 15.3785 50.4769 15.5037C50.4226 15.6289 50.3171 15.7459 50.163 15.8532C49.9757 15.9842 49.8031 16.0493 49.6452 16.05C49.4874 16.0506 49.3448 16.0033 49.217 15.9075C49.0878 15.8117 48.9645 15.6788 48.8456 15.5082L47.7378 13.9243L50.4852 12.0051L51.6275 13.6381ZM47.8906 9.18748L49.8856 11.2499L49.449 11.6716L48.6813 10.878L46.708 12.7852L46.2228 12.2836L48.1961 10.3765L47.4533 9.60916L47.8906 9.18748ZM45.6309 7.53271C45.8808 7.55891 46.1058 7.65091 46.3072 7.80808L47.3236 8.60352L46.9522 9.07759L46.0534 8.37415C45.9492 8.29301 45.8342 8.23998 45.7089 8.21762C45.5829 8.19462 45.4628 8.2042 45.3464 8.24573C45.2307 8.28726 45.1329 8.35946 45.053 8.46104L44.9923 8.53899L46.4689 9.69413L46.0975 10.1682L44.6209 9.01306L44.5723 9.07567C44.5052 9.16129 44.4636 9.26479 44.447 9.38682C44.4304 9.50885 44.4477 9.63344 44.4982 9.76186C44.5493 9.89028 44.6426 10.0072 44.7769 10.112L45.6232 10.7745L45.2576 11.2416L44.2374 10.4436C44.075 10.3164 43.9516 10.1682 43.8679 10.0002C43.7835 9.8315 43.7407 9.64877 43.7375 9.45199C43.7343 9.25521 43.7707 9.05523 43.8468 8.85333C43.9229 8.6508 44.0347 8.45529 44.1817 8.26746C44.3927 7.99848 44.6247 7.80233 44.8772 7.67902C45.1304 7.55507 45.3809 7.50652 45.6309 7.53271ZM44.7104 6.57435L42.6463 7.22412L42.863 9.37085L42.0799 8.87825L41.9662 6.79605L43.9235 6.0792L44.7104 6.57435ZM42.8151 5.38215L41.0297 8.21762L40.439 7.84642L42.2244 5.01095L42.8151 5.38215ZM37.5114 5.82939L39.0423 6.53282C39.3434 6.67147 39.5486 6.62227 39.6579 6.38524C39.7135 6.26384 39.7129 6.15331 39.6566 6.05364C39.6004 5.95397 39.5179 5.87986 39.4099 5.83003L38.6601 5.48566C38.3507 5.34318 38.1493 5.15278 38.0566 4.91383C37.9639 4.67424 37.9793 4.42124 38.1027 4.15353C38.1691 4.00978 38.2561 3.89286 38.3635 3.80405C38.4708 3.71524 38.5891 3.6571 38.7189 3.62707C38.848 3.59768 38.9835 3.59257 39.1222 3.61238C39.2622 3.63155 39.399 3.67244 39.5326 3.73377L41.1946 4.49791L40.9408 5.04928L39.3376 4.31262C39.2181 4.25768 39.1139 4.24426 39.0263 4.27109C38.9375 4.29857 38.8685 4.36437 38.8192 4.47171C38.7118 4.70555 38.7949 4.88572 39.0692 5.01222L39.7909 5.34382C40.0088 5.44413 40.177 5.56296 40.2939 5.70033C40.4109 5.83705 40.4761 5.99103 40.4889 6.1597C40.5017 6.32901 40.4627 6.51238 40.3719 6.71044C40.2652 6.94236 40.1412 7.10592 39.9986 7.20176C39.8567 7.29696 39.6995 7.33721 39.5275 7.32315C39.3555 7.3091 39.1619 7.25223 38.9458 7.1532L37.2601 6.37821L37.5114 5.82939ZM36.4381 2.66105L36.89 6.25873L36.0859 6.03895L35.9887 5.20965L34.7563 4.8723L34.2379 5.53293L33.4337 5.31315L35.657 2.44829L36.4381 2.66105ZM30.7036 1.62857L32.6788 1.90011C32.8948 1.93014 33.07 1.99339 33.2042 2.0905C33.3378 2.18826 33.4312 2.30773 33.4823 2.45021C33.5341 2.59268 33.5494 2.74411 33.527 2.90511C33.5034 3.07698 33.4446 3.22904 33.3493 3.35937C33.2547 3.48907 33.1179 3.57852 32.9383 3.62707C33.1013 3.75869 33.2113 3.88647 33.2662 4.01106C33.3212 4.13628 33.3359 4.29282 33.3097 4.47874C33.2784 4.70491 33.2093 4.87614 33.1026 4.99242C32.9958 5.1087 32.8642 5.18153 32.7069 5.20965C32.549 5.23904 32.3675 5.23904 32.161 5.21092L30.2459 4.94706L30.7036 1.62857ZM51.8589 28.9853C51.8589 41.6037 41.6248 51.8326 29 51.8326C16.3752 51.8326 6.14109 41.6037 6.14109 28.9853C6.14109 16.3669 16.3752 6.13798 29 6.13798C41.6248 6.13798 51.8589 16.3669 51.8589 28.9853ZM25.382 2.39526C25.4325 2.26556 25.5079 2.15695 25.607 2.06814C25.7054 1.97997 25.8211 1.90969 25.9521 1.85986C26.0838 1.80875 26.2232 1.77808 26.3702 1.76722L28.1939 1.62857L28.24 2.23362L26.4808 2.36715C26.3498 2.37673 26.2519 2.41571 26.188 2.48151C26.1235 2.5486 26.0953 2.63996 26.1043 2.75752C26.1235 3.01436 26.2839 3.13128 26.585 3.10828L27.377 3.04823C27.6161 3.03034 27.8206 3.0527 27.99 3.11595C28.1588 3.17856 28.2905 3.28143 28.3838 3.42262C28.4771 3.56446 28.5321 3.74336 28.5487 3.96122C28.5679 4.21551 28.5391 4.41932 28.4611 4.57202C28.3831 4.72408 28.2655 4.83589 28.1076 4.90681C27.9504 4.97772 27.7535 5.02245 27.517 5.04034L25.6664 5.1809L25.621 4.58032L27.3016 4.45318C27.632 4.42826 27.788 4.28515 27.7682 4.02575C27.758 3.89222 27.7036 3.79575 27.6058 3.73633C27.508 3.67627 27.4 3.65135 27.2811 3.6603L26.4584 3.72291C26.119 3.74847 25.8505 3.67947 25.653 3.5159C25.4555 3.35171 25.3462 3.12298 25.3238 2.82844C25.3123 2.66871 25.3315 2.52432 25.382 2.39526ZM24.411 2.03492L24.9639 5.33934L24.2806 5.45371L23.7276 2.14928L24.411 2.03492ZM21.3574 2.72941L21.9039 4.60652C21.9557 4.78477 22.0151 4.92469 22.0829 5.025C22.1506 5.12531 22.235 5.19112 22.336 5.22179C22.437 5.25245 22.561 5.24607 22.7087 5.20326L23.6445 4.93108L23.8114 5.50482L22.779 5.80511C22.5821 5.86261 22.4031 5.88242 22.2401 5.8658C22.0778 5.84919 21.9333 5.80128 21.8061 5.7195C21.6789 5.63835 21.5715 5.5323 21.4833 5.40068C21.3951 5.26907 21.3254 5.11445 21.2736 4.93747L20.6874 2.92428L21.3574 2.72941ZM17.2471 4.68319C17.32 4.50046 17.4363 4.3369 17.5955 4.19506C17.754 4.05323 17.9534 3.928 18.1925 3.82066C18.4373 3.71013 18.6656 3.64369 18.8778 3.62069C19.09 3.59768 19.2869 3.62132 19.4678 3.69097C19.6493 3.76125 19.8181 3.88392 19.9766 4.05898C20.1345 4.23468 20.2771 4.4634 20.4043 4.74516C20.8588 5.75144 20.5992 6.47468 19.625 6.91425C19.3681 7.02989 19.1277 7.09506 18.9014 7.10976C18.6758 7.12381 18.4667 7.09059 18.2737 7.00945C18.0813 6.92831 17.9113 6.80691 17.7655 6.64719C17.6191 6.48618 17.4932 6.28812 17.3864 6.05173C17.2644 5.78147 17.1928 5.5323 17.171 5.30293C17.148 5.07356 17.1736 4.86719 17.2471 4.68319ZM14.8698 5.55849C15.0801 5.42176 15.2847 5.34382 15.4854 5.32465C15.6855 5.30548 15.8683 5.33998 16.0326 5.42815C16.1968 5.51568 16.3368 5.64858 16.4525 5.82683C16.5586 5.99039 16.6238 6.16417 16.6481 6.34946C16.6724 6.5341 16.6481 6.71108 16.5727 6.87975C16.4986 7.04842 16.372 7.1909 16.1924 7.30718L15.137 7.99209L15.7711 8.9677L15.1862 9.34721L13.3612 6.5373L14.8698 5.55849ZM11.3969 6.8855L11.308 7.79658L11.0127 8.05023L10.927 7.28929L11.3969 6.8855ZM10.5997 9.21432C10.6183 9.01817 10.6835 8.82905 10.7966 8.64761C10.9091 8.46679 11.0651 8.2911 11.2639 8.11987C11.4678 7.94481 11.6679 7.81703 11.8648 7.73525C12.0623 7.65347 12.2573 7.62088 12.4509 7.63685C12.6453 7.65347 12.8415 7.72311 13.0429 7.84705C13.2436 7.971 13.4449 8.15054 13.6463 8.38502C14.3661 9.22262 14.3207 9.98995 13.5095 10.6857C13.296 10.8691 13.0831 10.9988 12.8703 11.0767C12.6581 11.1534 12.4477 11.1802 12.24 11.1572C12.0322 11.1336 11.8354 11.0652 11.65 10.9521C11.464 10.8391 11.2875 10.6844 11.1181 10.4877C10.9251 10.2628 10.7857 10.0436 10.7001 9.82958C10.6151 9.61619 10.5812 9.41174 10.5997 9.21432ZM7.45408 12.0945L9.97648 13.15L8.57465 10.795L9.25159 10.0098L11.7906 12.1967L11.3502 12.7079L9.45231 11.0729L10.773 13.3774L10.3038 13.9218L7.86446 12.9142L9.76234 14.5492L9.32191 15.0603L6.78288 12.8733L7.45408 12.0945ZM4.96811 16.034C4.99943 15.8966 5.05184 15.7638 5.12472 15.636L6.03115 14.0476L6.55851 14.3479L5.68468 15.88C5.61948 15.9938 5.59711 16.0966 5.61565 16.1867C5.63482 16.2774 5.69555 16.3522 5.79783 16.4103C6.02156 16.5381 6.20821 16.4704 6.35779 16.2084L6.75156 15.5191C6.87046 15.3108 7.00342 15.1536 7.15108 15.0495C7.2981 14.9447 7.45663 14.8936 7.62603 14.8955C7.79606 14.8974 7.97505 14.9523 8.1649 15.0603C8.38671 15.1868 8.53885 15.3248 8.62195 15.4743C8.70441 15.6238 8.73126 15.7842 8.70185 15.9541C8.67245 16.1241 8.59958 16.3119 8.48196 16.5183L7.56274 18.1296L7.03921 17.8313L7.87405 16.3682C8.03833 16.0806 8.00701 15.8717 7.78072 15.7427C7.66438 15.6762 7.55443 15.6673 7.4496 15.7146C7.34541 15.7618 7.26422 15.8372 7.20477 15.9407L6.79631 16.6569C6.62755 16.9528 6.4198 17.1368 6.1737 17.2083C5.92695 17.2799 5.67637 17.2428 5.42004 17.0965C5.28261 17.0179 5.1733 16.9208 5.09467 16.8064C5.01541 16.6921 4.96747 16.5688 4.94893 16.4372C4.92911 16.3055 4.93614 16.1701 4.96811 16.034ZM3.35469 19.6151C3.36747 19.4023 3.42117 19.1736 3.51449 18.9289C3.61038 18.6778 3.72544 18.4702 3.86032 18.3047C3.99519 18.1386 4.15117 18.0178 4.32887 17.9392C4.50722 17.8613 4.71369 17.8293 4.94957 17.8428C5.18544 17.8562 5.44753 17.9188 5.73646 18.0293C6.76818 18.4235 7.09355 19.1199 6.71129 20.1179C6.61029 20.3811 6.485 20.5964 6.33542 20.7658C6.1852 20.9344 6.01325 21.0577 5.81956 21.1363C5.62587 21.2143 5.4194 21.2475 5.20334 21.2366C4.986 21.2251 4.75716 21.1734 4.51425 21.0807C4.23682 20.9747 4.01054 20.8488 3.83347 20.7006C3.65576 20.5524 3.52856 20.3882 3.45121 20.2061C3.3745 20.0259 3.3419 19.8285 3.35469 19.6151ZM2.39712 22.5049L2.65025 21.3906L3.23323 21.5229L2.98904 22.5975C2.96667 22.6953 2.96156 22.7936 2.97243 22.8946C2.98329 22.9955 3.01781 23.0939 3.07598 23.1898C3.13479 23.285 3.2262 23.3712 3.35021 23.4492C3.47422 23.5258 3.63211 23.5865 3.82132 23.6293C4.22596 23.7213 4.52448 23.7169 4.7188 23.6159C4.91185 23.5156 5.03458 23.3508 5.08636 23.122L5.34078 22.0008L5.91928 22.1317L5.64058 23.3597C5.58241 23.6166 5.49611 23.8268 5.38169 23.991C5.26663 24.1558 5.12663 24.2785 4.96171 24.3577C4.79551 24.4376 4.60758 24.4804 4.39535 24.4861C4.18249 24.4912 3.94725 24.465 3.689 24.4062C3.39687 24.3398 3.15525 24.2452 2.96284 24.12C2.77043 23.9954 2.62404 23.8491 2.52368 23.6798C2.42396 23.5111 2.36516 23.329 2.34726 23.1335C2.32936 22.9393 2.34598 22.7291 2.39712 22.5049ZM0.447462 28.4077L2.41629 28.4116L3.02101 26.5389L3.62572 28.4116L5.59455 28.4077L3.99967 29.5616L4.61141 31.4317L3.02101 30.2721L1.4306 31.4317L2.04234 29.5616L0.447462 28.4077ZM19.6455 54.8029C15.8235 53.4197 12.3966 51.2129 9.57888 48.3966C5.56642 44.3861 2.79024 39.1407 1.86911 33.28C2.03787 33.3279 2.21046 33.3656 2.38689 33.3925C3.32145 39.0717 6.03115 44.1529 9.9279 48.0477C12.6542 50.772 15.961 52.9162 19.6468 54.2783C19.6442 54.3716 19.6423 54.4643 19.6423 54.5582C19.6423 54.64 19.6429 54.7217 19.6455 54.8029ZM19.905 52.3584C16.636 51.087 13.6994 49.1498 11.262 46.7143C7.67589 43.1301 5.17074 38.4648 4.27646 33.25C4.43754 33.1995 4.59479 33.1401 4.74693 33.0711C5.60925 38.222 8.07349 42.8298 11.611 46.3655C13.9883 48.7416 16.8495 50.6327 20.0348 51.8799C19.9875 52.0371 19.944 52.1968 19.905 52.3584ZM26.4412 54.0151C26.3772 54.3786 26.2443 54.6118 26.0436 54.7141C25.8428 54.8169 25.5865 54.8406 25.2752 54.7856L24.6066 54.6681C24.4563 54.6419 24.3279 54.6585 24.2211 54.7185C24.1144 54.778 24.0511 54.8642 24.0319 54.9754L23.968 55.3396L26.0666 55.7082L25.9668 56.273L23.1945 55.7855L23.3671 54.8035C23.3856 54.6968 23.4323 54.578 23.5071 54.4464C23.5812 54.3141 23.6893 54.2049 23.8305 54.1193C23.9718 54.033 24.1431 54.0074 24.3438 54.0432L25.1211 54.1799C25.2784 54.2074 25.4069 54.2017 25.5079 54.1627C25.6089 54.1237 25.6715 54.0343 25.6965 53.8937C25.7207 53.7551 25.6888 53.649 25.6006 53.5743C25.513 53.4989 25.3999 53.449 25.2624 53.4254L23.7027 53.1513L23.8037 52.5776L25.5469 52.8842C25.7744 52.9245 25.9611 52.9922 26.1068 53.0881C26.2526 53.1833 26.3549 53.3085 26.4118 53.4644C26.468 53.6203 26.4782 53.8043 26.4412 54.0151ZM30.0835 54.9907C30.0528 55.392 29.9716 55.7076 29.8387 55.9382C29.7057 56.1682 29.5235 56.3286 29.2915 56.4174C29.0607 56.5068 28.7718 56.5382 28.4266 56.512C28.1089 56.4877 27.8449 56.4251 27.6352 56.3235C27.4256 56.2213 27.2626 56.0896 27.1488 55.9267C27.0344 55.7638 26.9583 55.5804 26.9199 55.3766C26.8822 55.1722 26.8733 54.946 26.8918 54.6968C26.9142 54.4004 26.9807 54.1359 27.0925 53.902C27.2038 53.6688 27.3834 53.4855 27.6308 53.3526C27.8775 53.2197 28.2016 53.1679 28.603 53.1986C28.8734 53.219 29.1061 53.2676 29.2992 53.3449C29.4928 53.4222 29.6514 53.534 29.7754 53.6784C29.8988 53.8234 29.9863 54.0049 30.0388 54.2234C30.0912 54.4413 30.1059 54.6975 30.0835 54.9907ZM31.3696 56.5375L31.1222 53.2823L31.7954 53.2312L32.0427 56.4864L31.3696 56.5375ZM34.1356 56.2283L33.7361 52.9884L34.406 52.906L34.8055 56.1459L34.1356 56.2283ZM37.8463 51.9252C41.0789 50.6794 43.9823 48.7703 46.3884 46.3648C49.9259 42.8291 52.3901 38.2213 53.2524 33.0705C53.4046 33.1388 53.5618 33.1989 53.7229 33.2494C52.8286 38.4641 50.3241 43.1294 46.7374 46.7137C44.27 49.1799 41.2911 51.1336 37.9735 52.4044C37.9358 52.2434 37.893 52.0837 37.8463 51.9252ZM48.4211 48.3966C45.5708 51.2454 42.0959 53.4708 38.2203 54.8514C38.2235 54.7543 38.2254 54.6566 38.2254 54.5582C38.2254 54.4809 38.2241 54.4036 38.2222 54.3263C41.9611 52.9667 45.3138 50.8046 48.0715 48.0477C51.9682 44.1529 54.6779 39.0717 55.6125 33.3925C55.7889 33.3656 55.9621 33.3279 56.1303 33.28C55.2098 39.1414 52.4336 44.3868 48.4211 48.3966ZM54.979 30.2721L53.3886 31.4317L54.0003 29.5616L52.4055 28.4077L54.3743 28.4116L54.979 26.5389L55.5837 28.4116L57.5525 28.4077L55.9577 29.5616L56.5694 31.4317L54.979 30.2721Z" fill="#002F52"/>
</svg>
